<mxfile host="app.diagrams.net" agent="Mozilla/5.0 (Windows NT 10.0; Win64; x64) AppleWebKit/537.36 (KHTML, like Gecko) Chrome/132.0.0.0 Safari/537.36" version="26.0.10">
  <diagram name="ページ1" id="tiKHrzCSkis50CEgJ6Ww">
    <mxGraphModel dx="1585" dy="469" grid="1" gridSize="10" guides="1" tooltips="1" connect="1" arrows="1" fold="1" page="1" pageScale="1" pageWidth="827" pageHeight="1169" math="0" shadow="0">
      <root>
        <mxCell id="0" />
        <mxCell id="1" parent="0" />
        <mxCell id="rwRMCPvIfiqm_xGu82nB-38" value="" style="rounded=0;whiteSpace=wrap;html=1;strokeColor=none;" parent="1" vertex="1">
          <mxGeometry x="-186" y="305" width="1200" height="210" as="geometry" />
        </mxCell>
        <mxCell id="rwRMCPvIfiqm_xGu82nB-1" value="" style="rounded=0;whiteSpace=wrap;html=1;fillColor=#E6E6E6;" parent="1" vertex="1">
          <mxGeometry x="160" y="400" width="520" height="20" as="geometry" />
        </mxCell>
        <mxCell id="rwRMCPvIfiqm_xGu82nB-3" value="" style="triangle;whiteSpace=wrap;html=1;rotation=270;" parent="1" vertex="1">
          <mxGeometry x="145" y="420" width="30" height="30" as="geometry" />
        </mxCell>
        <mxCell id="rwRMCPvIfiqm_xGu82nB-5" value="" style="rounded=0;whiteSpace=wrap;html=1;fillStyle=hatch;comic=0;shadow=0;glass=0;" parent="1" vertex="1">
          <mxGeometry x="160" y="350" width="20" height="30" as="geometry" />
        </mxCell>
        <mxCell id="rwRMCPvIfiqm_xGu82nB-6" value="" style="rounded=0;whiteSpace=wrap;html=1;fillStyle=hatch;comic=0;shadow=0;glass=0;" parent="1" vertex="1">
          <mxGeometry x="180" y="350" width="20" height="30" as="geometry" />
        </mxCell>
        <mxCell id="rwRMCPvIfiqm_xGu82nB-7" value="" style="rounded=0;whiteSpace=wrap;html=1;fillStyle=hatch;comic=0;shadow=0;glass=0;" parent="1" vertex="1">
          <mxGeometry x="220" y="350" width="20" height="30" as="geometry" />
        </mxCell>
        <mxCell id="rwRMCPvIfiqm_xGu82nB-8" value="" style="rounded=0;whiteSpace=wrap;html=1;fillStyle=hatch;comic=0;shadow=0;glass=0;" parent="1" vertex="1">
          <mxGeometry x="200" y="350" width="20" height="30" as="geometry" />
        </mxCell>
        <mxCell id="rwRMCPvIfiqm_xGu82nB-9" value="" style="rounded=0;whiteSpace=wrap;html=1;fillStyle=hatch;comic=0;shadow=0;glass=0;" parent="1" vertex="1">
          <mxGeometry x="300" y="350" width="20" height="30" as="geometry" />
        </mxCell>
        <mxCell id="rwRMCPvIfiqm_xGu82nB-10" value="" style="rounded=0;whiteSpace=wrap;html=1;fillStyle=hatch;comic=0;shadow=0;glass=0;" parent="1" vertex="1">
          <mxGeometry x="280" y="350" width="20" height="30" as="geometry" />
        </mxCell>
        <mxCell id="rwRMCPvIfiqm_xGu82nB-11" value="" style="rounded=0;whiteSpace=wrap;html=1;fillStyle=hatch;comic=0;shadow=0;glass=0;" parent="1" vertex="1">
          <mxGeometry x="260" y="350" width="20" height="30" as="geometry" />
        </mxCell>
        <mxCell id="rwRMCPvIfiqm_xGu82nB-12" value="" style="rounded=0;whiteSpace=wrap;html=1;fillStyle=hatch;comic=0;shadow=0;glass=0;" parent="1" vertex="1">
          <mxGeometry x="240" y="350" width="20" height="30" as="geometry" />
        </mxCell>
        <mxCell id="rwRMCPvIfiqm_xGu82nB-13" value="" style="rounded=0;whiteSpace=wrap;html=1;fillStyle=hatch;comic=0;shadow=0;glass=0;" parent="1" vertex="1">
          <mxGeometry x="380" y="350" width="20" height="30" as="geometry" />
        </mxCell>
        <mxCell id="rwRMCPvIfiqm_xGu82nB-14" value="" style="rounded=0;whiteSpace=wrap;html=1;fillStyle=hatch;comic=0;shadow=0;glass=0;" parent="1" vertex="1">
          <mxGeometry x="360" y="350" width="20" height="30" as="geometry" />
        </mxCell>
        <mxCell id="rwRMCPvIfiqm_xGu82nB-15" value="" style="rounded=0;whiteSpace=wrap;html=1;fillStyle=hatch;comic=0;shadow=0;glass=0;" parent="1" vertex="1">
          <mxGeometry x="340" y="350" width="20" height="30" as="geometry" />
        </mxCell>
        <mxCell id="rwRMCPvIfiqm_xGu82nB-16" value="" style="rounded=0;whiteSpace=wrap;html=1;fillStyle=hatch;comic=0;shadow=0;glass=0;" parent="1" vertex="1">
          <mxGeometry x="320" y="350" width="20" height="30" as="geometry" />
        </mxCell>
        <mxCell id="rwRMCPvIfiqm_xGu82nB-17" value="" style="rounded=0;whiteSpace=wrap;html=1;fillStyle=hatch;comic=0;shadow=0;glass=0;" parent="1" vertex="1">
          <mxGeometry x="460" y="350" width="20" height="30" as="geometry" />
        </mxCell>
        <mxCell id="rwRMCPvIfiqm_xGu82nB-18" value="" style="rounded=0;whiteSpace=wrap;html=1;fillStyle=hatch;comic=0;shadow=0;glass=0;" parent="1" vertex="1">
          <mxGeometry x="440" y="350" width="20" height="30" as="geometry" />
        </mxCell>
        <mxCell id="rwRMCPvIfiqm_xGu82nB-19" value="" style="rounded=0;whiteSpace=wrap;html=1;fillStyle=hatch;comic=0;shadow=0;glass=0;" parent="1" vertex="1">
          <mxGeometry x="420" y="350" width="20" height="30" as="geometry" />
        </mxCell>
        <mxCell id="rwRMCPvIfiqm_xGu82nB-20" value="" style="rounded=0;whiteSpace=wrap;html=1;fillStyle=hatch;comic=0;shadow=0;glass=0;" parent="1" vertex="1">
          <mxGeometry x="400" y="350" width="20" height="30" as="geometry" />
        </mxCell>
        <mxCell id="rwRMCPvIfiqm_xGu82nB-21" value="" style="rounded=0;whiteSpace=wrap;html=1;fillStyle=hatch;comic=0;shadow=0;glass=0;" parent="1" vertex="1">
          <mxGeometry x="540" y="350" width="20" height="30" as="geometry" />
        </mxCell>
        <mxCell id="rwRMCPvIfiqm_xGu82nB-22" value="" style="rounded=0;whiteSpace=wrap;html=1;fillStyle=hatch;comic=0;shadow=0;glass=0;" parent="1" vertex="1">
          <mxGeometry x="520" y="350" width="20" height="30" as="geometry" />
        </mxCell>
        <mxCell id="rwRMCPvIfiqm_xGu82nB-23" value="" style="rounded=0;whiteSpace=wrap;html=1;fillStyle=hatch;comic=0;shadow=0;glass=0;" parent="1" vertex="1">
          <mxGeometry x="500" y="350" width="20" height="30" as="geometry" />
        </mxCell>
        <mxCell id="rwRMCPvIfiqm_xGu82nB-24" value="" style="rounded=0;whiteSpace=wrap;html=1;fillStyle=hatch;comic=0;shadow=0;glass=0;" parent="1" vertex="1">
          <mxGeometry x="480" y="350" width="20" height="30" as="geometry" />
        </mxCell>
        <mxCell id="rwRMCPvIfiqm_xGu82nB-25" value="" style="rounded=0;whiteSpace=wrap;html=1;fillStyle=hatch;comic=0;shadow=0;glass=0;" parent="1" vertex="1">
          <mxGeometry x="620" y="350" width="20" height="30" as="geometry" />
        </mxCell>
        <mxCell id="rwRMCPvIfiqm_xGu82nB-26" value="" style="rounded=0;whiteSpace=wrap;html=1;fillStyle=hatch;comic=0;shadow=0;glass=0;" parent="1" vertex="1">
          <mxGeometry x="600" y="350" width="20" height="30" as="geometry" />
        </mxCell>
        <mxCell id="rwRMCPvIfiqm_xGu82nB-27" value="" style="rounded=0;whiteSpace=wrap;html=1;fillStyle=hatch;comic=0;shadow=0;glass=0;" parent="1" vertex="1">
          <mxGeometry x="580" y="350" width="20" height="30" as="geometry" />
        </mxCell>
        <mxCell id="rwRMCPvIfiqm_xGu82nB-28" value="" style="rounded=0;whiteSpace=wrap;html=1;fillStyle=hatch;comic=0;shadow=0;glass=0;" parent="1" vertex="1">
          <mxGeometry x="560" y="350" width="20" height="30" as="geometry" />
        </mxCell>
        <mxCell id="rwRMCPvIfiqm_xGu82nB-31" value="" style="rounded=0;whiteSpace=wrap;html=1;fillStyle=hatch;comic=0;shadow=0;glass=0;" parent="1" vertex="1">
          <mxGeometry x="660" y="350" width="20" height="30" as="geometry" />
        </mxCell>
        <mxCell id="rwRMCPvIfiqm_xGu82nB-32" value="" style="rounded=0;whiteSpace=wrap;html=1;fillStyle=hatch;comic=0;shadow=0;glass=0;" parent="1" vertex="1">
          <mxGeometry x="640" y="350" width="20" height="30" as="geometry" />
        </mxCell>
        <mxCell id="rwRMCPvIfiqm_xGu82nB-33" value="" style="endArrow=oval;startArrow=oval;html=1;rounded=0;startFill=0;endFill=0;" parent="1" edge="1">
          <mxGeometry width="50" height="50" relative="1" as="geometry">
            <mxPoint x="160" y="500" as="sourcePoint" />
            <mxPoint x="680" y="500" as="targetPoint" />
          </mxGeometry>
        </mxCell>
        <mxCell id="rwRMCPvIfiqm_xGu82nB-35" value="&lt;font style=&quot;font-size: 20px;&quot;&gt;L=10.65m&lt;/font&gt;" style="text;html=1;align=center;verticalAlign=middle;whiteSpace=wrap;rounded=0;" parent="1" vertex="1">
          <mxGeometry x="365" y="470" width="110" height="30" as="geometry" />
        </mxCell>
        <mxCell id="rwRMCPvIfiqm_xGu82nB-36" value="" style="triangle;whiteSpace=wrap;html=1;rotation=270;" parent="1" vertex="1">
          <mxGeometry x="665" y="420" width="30" height="30" as="geometry" />
        </mxCell>
        <mxCell id="rwRMCPvIfiqm_xGu82nB-37" value="&lt;font style=&quot;font-size: 20px;&quot;&gt;w=79.4kN/m&lt;/font&gt;" style="text;html=1;align=center;verticalAlign=middle;whiteSpace=wrap;rounded=0;" parent="1" vertex="1">
          <mxGeometry x="354" y="320" width="120" height="30" as="geometry" />
        </mxCell>
        <mxCell id="rwRMCPvIfiqm_xGu82nB-39" value="" style="rounded=0;whiteSpace=wrap;html=1;strokeColor=none;" parent="1" vertex="1">
          <mxGeometry x="-187" y="690" width="1200" height="210" as="geometry" />
        </mxCell>
        <mxCell id="rwRMCPvIfiqm_xGu82nB-40" value="" style="rounded=0;whiteSpace=wrap;html=1;fillColor=#E6E6E6;" parent="1" vertex="1">
          <mxGeometry x="159" y="785" width="520" height="20" as="geometry" />
        </mxCell>
        <mxCell id="rwRMCPvIfiqm_xGu82nB-41" value="" style="triangle;whiteSpace=wrap;html=1;rotation=270;" parent="1" vertex="1">
          <mxGeometry x="144" y="805" width="30" height="30" as="geometry" />
        </mxCell>
        <mxCell id="rwRMCPvIfiqm_xGu82nB-42" value="" style="rounded=0;whiteSpace=wrap;html=1;fillStyle=hatch;comic=0;shadow=0;glass=0;" parent="1" vertex="1">
          <mxGeometry x="159" y="735" width="20" height="30" as="geometry" />
        </mxCell>
        <mxCell id="rwRMCPvIfiqm_xGu82nB-43" value="" style="rounded=0;whiteSpace=wrap;html=1;fillStyle=hatch;comic=0;shadow=0;glass=0;" parent="1" vertex="1">
          <mxGeometry x="179" y="735" width="20" height="30" as="geometry" />
        </mxCell>
        <mxCell id="rwRMCPvIfiqm_xGu82nB-44" value="" style="rounded=0;whiteSpace=wrap;html=1;fillStyle=hatch;comic=0;shadow=0;glass=0;" parent="1" vertex="1">
          <mxGeometry x="219" y="735" width="20" height="30" as="geometry" />
        </mxCell>
        <mxCell id="rwRMCPvIfiqm_xGu82nB-45" value="" style="rounded=0;whiteSpace=wrap;html=1;fillStyle=hatch;comic=0;shadow=0;glass=0;" parent="1" vertex="1">
          <mxGeometry x="199" y="735" width="20" height="30" as="geometry" />
        </mxCell>
        <mxCell id="rwRMCPvIfiqm_xGu82nB-46" value="" style="rounded=0;whiteSpace=wrap;html=1;fillStyle=hatch;comic=0;shadow=0;glass=0;" parent="1" vertex="1">
          <mxGeometry x="299" y="735" width="20" height="30" as="geometry" />
        </mxCell>
        <mxCell id="rwRMCPvIfiqm_xGu82nB-47" value="" style="rounded=0;whiteSpace=wrap;html=1;fillStyle=hatch;comic=0;shadow=0;glass=0;" parent="1" vertex="1">
          <mxGeometry x="279" y="735" width="20" height="30" as="geometry" />
        </mxCell>
        <mxCell id="rwRMCPvIfiqm_xGu82nB-48" value="" style="rounded=0;whiteSpace=wrap;html=1;fillStyle=hatch;comic=0;shadow=0;glass=0;" parent="1" vertex="1">
          <mxGeometry x="259" y="735" width="20" height="30" as="geometry" />
        </mxCell>
        <mxCell id="rwRMCPvIfiqm_xGu82nB-49" value="" style="rounded=0;whiteSpace=wrap;html=1;fillStyle=hatch;comic=0;shadow=0;glass=0;" parent="1" vertex="1">
          <mxGeometry x="239" y="735" width="20" height="30" as="geometry" />
        </mxCell>
        <mxCell id="rwRMCPvIfiqm_xGu82nB-50" value="" style="rounded=0;whiteSpace=wrap;html=1;fillStyle=hatch;comic=0;shadow=0;glass=0;" parent="1" vertex="1">
          <mxGeometry x="379" y="735" width="20" height="30" as="geometry" />
        </mxCell>
        <mxCell id="rwRMCPvIfiqm_xGu82nB-51" value="" style="rounded=0;whiteSpace=wrap;html=1;fillStyle=hatch;comic=0;shadow=0;glass=0;" parent="1" vertex="1">
          <mxGeometry x="359" y="735" width="20" height="30" as="geometry" />
        </mxCell>
        <mxCell id="rwRMCPvIfiqm_xGu82nB-52" value="" style="rounded=0;whiteSpace=wrap;html=1;fillStyle=hatch;comic=0;shadow=0;glass=0;" parent="1" vertex="1">
          <mxGeometry x="339" y="735" width="20" height="30" as="geometry" />
        </mxCell>
        <mxCell id="rwRMCPvIfiqm_xGu82nB-53" value="" style="rounded=0;whiteSpace=wrap;html=1;fillStyle=hatch;comic=0;shadow=0;glass=0;" parent="1" vertex="1">
          <mxGeometry x="319" y="735" width="20" height="30" as="geometry" />
        </mxCell>
        <mxCell id="rwRMCPvIfiqm_xGu82nB-54" value="" style="rounded=0;whiteSpace=wrap;html=1;fillStyle=hatch;comic=0;shadow=0;glass=0;" parent="1" vertex="1">
          <mxGeometry x="459" y="735" width="20" height="30" as="geometry" />
        </mxCell>
        <mxCell id="rwRMCPvIfiqm_xGu82nB-55" value="" style="rounded=0;whiteSpace=wrap;html=1;fillStyle=hatch;comic=0;shadow=0;glass=0;" parent="1" vertex="1">
          <mxGeometry x="439" y="735" width="20" height="30" as="geometry" />
        </mxCell>
        <mxCell id="rwRMCPvIfiqm_xGu82nB-56" value="" style="rounded=0;whiteSpace=wrap;html=1;fillStyle=hatch;comic=0;shadow=0;glass=0;" parent="1" vertex="1">
          <mxGeometry x="419" y="735" width="20" height="30" as="geometry" />
        </mxCell>
        <mxCell id="rwRMCPvIfiqm_xGu82nB-57" value="" style="rounded=0;whiteSpace=wrap;html=1;fillStyle=hatch;comic=0;shadow=0;glass=0;" parent="1" vertex="1">
          <mxGeometry x="399" y="735" width="20" height="30" as="geometry" />
        </mxCell>
        <mxCell id="rwRMCPvIfiqm_xGu82nB-58" value="" style="rounded=0;whiteSpace=wrap;html=1;fillStyle=hatch;comic=0;shadow=0;glass=0;" parent="1" vertex="1">
          <mxGeometry x="539" y="735" width="20" height="30" as="geometry" />
        </mxCell>
        <mxCell id="rwRMCPvIfiqm_xGu82nB-59" value="" style="rounded=0;whiteSpace=wrap;html=1;fillStyle=hatch;comic=0;shadow=0;glass=0;" parent="1" vertex="1">
          <mxGeometry x="519" y="735" width="20" height="30" as="geometry" />
        </mxCell>
        <mxCell id="rwRMCPvIfiqm_xGu82nB-60" value="" style="rounded=0;whiteSpace=wrap;html=1;fillStyle=hatch;comic=0;shadow=0;glass=0;" parent="1" vertex="1">
          <mxGeometry x="499" y="735" width="20" height="30" as="geometry" />
        </mxCell>
        <mxCell id="rwRMCPvIfiqm_xGu82nB-61" value="" style="rounded=0;whiteSpace=wrap;html=1;fillStyle=hatch;comic=0;shadow=0;glass=0;" parent="1" vertex="1">
          <mxGeometry x="479" y="735" width="20" height="30" as="geometry" />
        </mxCell>
        <mxCell id="rwRMCPvIfiqm_xGu82nB-62" value="" style="rounded=0;whiteSpace=wrap;html=1;fillStyle=hatch;comic=0;shadow=0;glass=0;" parent="1" vertex="1">
          <mxGeometry x="619" y="735" width="20" height="30" as="geometry" />
        </mxCell>
        <mxCell id="rwRMCPvIfiqm_xGu82nB-63" value="" style="rounded=0;whiteSpace=wrap;html=1;fillStyle=hatch;comic=0;shadow=0;glass=0;" parent="1" vertex="1">
          <mxGeometry x="599" y="735" width="20" height="30" as="geometry" />
        </mxCell>
        <mxCell id="rwRMCPvIfiqm_xGu82nB-64" value="" style="rounded=0;whiteSpace=wrap;html=1;fillStyle=hatch;comic=0;shadow=0;glass=0;" parent="1" vertex="1">
          <mxGeometry x="579" y="735" width="20" height="30" as="geometry" />
        </mxCell>
        <mxCell id="rwRMCPvIfiqm_xGu82nB-65" value="" style="rounded=0;whiteSpace=wrap;html=1;fillStyle=hatch;comic=0;shadow=0;glass=0;" parent="1" vertex="1">
          <mxGeometry x="559" y="735" width="20" height="30" as="geometry" />
        </mxCell>
        <mxCell id="rwRMCPvIfiqm_xGu82nB-66" value="" style="rounded=0;whiteSpace=wrap;html=1;fillStyle=hatch;comic=0;shadow=0;glass=0;" parent="1" vertex="1">
          <mxGeometry x="659" y="735" width="20" height="30" as="geometry" />
        </mxCell>
        <mxCell id="rwRMCPvIfiqm_xGu82nB-67" value="" style="rounded=0;whiteSpace=wrap;html=1;fillStyle=hatch;comic=0;shadow=0;glass=0;" parent="1" vertex="1">
          <mxGeometry x="639" y="735" width="20" height="30" as="geometry" />
        </mxCell>
        <mxCell id="rwRMCPvIfiqm_xGu82nB-68" value="" style="endArrow=oval;startArrow=oval;html=1;rounded=0;startFill=0;endFill=0;" parent="1" edge="1">
          <mxGeometry width="50" height="50" relative="1" as="geometry">
            <mxPoint x="159" y="885" as="sourcePoint" />
            <mxPoint x="679" y="885" as="targetPoint" />
          </mxGeometry>
        </mxCell>
        <mxCell id="rwRMCPvIfiqm_xGu82nB-69" value="&lt;font style=&quot;font-size: 20px;&quot;&gt;L=10.65m&lt;/font&gt;" style="text;html=1;align=center;verticalAlign=middle;whiteSpace=wrap;rounded=0;" parent="1" vertex="1">
          <mxGeometry x="364" y="855" width="110" height="30" as="geometry" />
        </mxCell>
        <mxCell id="rwRMCPvIfiqm_xGu82nB-70" value="" style="triangle;whiteSpace=wrap;html=1;rotation=270;" parent="1" vertex="1">
          <mxGeometry x="664" y="805" width="30" height="30" as="geometry" />
        </mxCell>
        <mxCell id="rwRMCPvIfiqm_xGu82nB-71" value="&lt;font style=&quot;font-size: 20px;&quot;&gt;w=90.1kN/m&lt;/font&gt;" style="text;html=1;align=center;verticalAlign=middle;whiteSpace=wrap;rounded=0;" parent="1" vertex="1">
          <mxGeometry x="353" y="705" width="120" height="30" as="geometry" />
        </mxCell>
        <mxCell id="rwRMCPvIfiqm_xGu82nB-72" value="" style="rounded=0;whiteSpace=wrap;html=1;strokeColor=none;" parent="1" vertex="1">
          <mxGeometry x="-171" y="1100" width="1200" height="210" as="geometry" />
        </mxCell>
        <mxCell id="rwRMCPvIfiqm_xGu82nB-73" value="" style="rounded=0;whiteSpace=wrap;html=1;fillColor=#E6E6E6;" parent="1" vertex="1">
          <mxGeometry x="175" y="1195" width="520" height="20" as="geometry" />
        </mxCell>
        <mxCell id="rwRMCPvIfiqm_xGu82nB-74" value="" style="triangle;whiteSpace=wrap;html=1;rotation=270;" parent="1" vertex="1">
          <mxGeometry x="160" y="1215" width="30" height="30" as="geometry" />
        </mxCell>
        <mxCell id="rwRMCPvIfiqm_xGu82nB-75" value="" style="rounded=0;whiteSpace=wrap;html=1;fillStyle=hatch;comic=0;shadow=0;glass=0;" parent="1" vertex="1">
          <mxGeometry x="175" y="1145" width="20" height="30" as="geometry" />
        </mxCell>
        <mxCell id="rwRMCPvIfiqm_xGu82nB-76" value="" style="rounded=0;whiteSpace=wrap;html=1;fillStyle=hatch;comic=0;shadow=0;glass=0;" parent="1" vertex="1">
          <mxGeometry x="195" y="1145" width="20" height="30" as="geometry" />
        </mxCell>
        <mxCell id="rwRMCPvIfiqm_xGu82nB-77" value="" style="rounded=0;whiteSpace=wrap;html=1;fillStyle=hatch;comic=0;shadow=0;glass=0;" parent="1" vertex="1">
          <mxGeometry x="235" y="1145" width="20" height="30" as="geometry" />
        </mxCell>
        <mxCell id="rwRMCPvIfiqm_xGu82nB-78" value="" style="rounded=0;whiteSpace=wrap;html=1;fillStyle=hatch;comic=0;shadow=0;glass=0;" parent="1" vertex="1">
          <mxGeometry x="215" y="1145" width="20" height="30" as="geometry" />
        </mxCell>
        <mxCell id="rwRMCPvIfiqm_xGu82nB-79" value="" style="rounded=0;whiteSpace=wrap;html=1;fillStyle=hatch;comic=0;shadow=0;glass=0;" parent="1" vertex="1">
          <mxGeometry x="315" y="1145" width="20" height="30" as="geometry" />
        </mxCell>
        <mxCell id="rwRMCPvIfiqm_xGu82nB-80" value="" style="rounded=0;whiteSpace=wrap;html=1;fillStyle=hatch;comic=0;shadow=0;glass=0;" parent="1" vertex="1">
          <mxGeometry x="295" y="1145" width="20" height="30" as="geometry" />
        </mxCell>
        <mxCell id="rwRMCPvIfiqm_xGu82nB-81" value="" style="rounded=0;whiteSpace=wrap;html=1;fillStyle=hatch;comic=0;shadow=0;glass=0;" parent="1" vertex="1">
          <mxGeometry x="275" y="1145" width="20" height="30" as="geometry" />
        </mxCell>
        <mxCell id="rwRMCPvIfiqm_xGu82nB-82" value="" style="rounded=0;whiteSpace=wrap;html=1;fillStyle=hatch;comic=0;shadow=0;glass=0;" parent="1" vertex="1">
          <mxGeometry x="255" y="1145" width="20" height="30" as="geometry" />
        </mxCell>
        <mxCell id="rwRMCPvIfiqm_xGu82nB-83" value="" style="rounded=0;whiteSpace=wrap;html=1;fillStyle=hatch;comic=0;shadow=0;glass=0;" parent="1" vertex="1">
          <mxGeometry x="395" y="1145" width="20" height="30" as="geometry" />
        </mxCell>
        <mxCell id="rwRMCPvIfiqm_xGu82nB-84" value="" style="rounded=0;whiteSpace=wrap;html=1;fillStyle=hatch;comic=0;shadow=0;glass=0;" parent="1" vertex="1">
          <mxGeometry x="375" y="1145" width="20" height="30" as="geometry" />
        </mxCell>
        <mxCell id="rwRMCPvIfiqm_xGu82nB-85" value="" style="rounded=0;whiteSpace=wrap;html=1;fillStyle=hatch;comic=0;shadow=0;glass=0;" parent="1" vertex="1">
          <mxGeometry x="355" y="1145" width="20" height="30" as="geometry" />
        </mxCell>
        <mxCell id="rwRMCPvIfiqm_xGu82nB-86" value="" style="rounded=0;whiteSpace=wrap;html=1;fillStyle=hatch;comic=0;shadow=0;glass=0;" parent="1" vertex="1">
          <mxGeometry x="335" y="1145" width="20" height="30" as="geometry" />
        </mxCell>
        <mxCell id="rwRMCPvIfiqm_xGu82nB-87" value="" style="rounded=0;whiteSpace=wrap;html=1;fillStyle=hatch;comic=0;shadow=0;glass=0;" parent="1" vertex="1">
          <mxGeometry x="475" y="1145" width="20" height="30" as="geometry" />
        </mxCell>
        <mxCell id="rwRMCPvIfiqm_xGu82nB-88" value="" style="rounded=0;whiteSpace=wrap;html=1;fillStyle=hatch;comic=0;shadow=0;glass=0;" parent="1" vertex="1">
          <mxGeometry x="455" y="1145" width="20" height="30" as="geometry" />
        </mxCell>
        <mxCell id="rwRMCPvIfiqm_xGu82nB-89" value="" style="rounded=0;whiteSpace=wrap;html=1;fillStyle=hatch;comic=0;shadow=0;glass=0;" parent="1" vertex="1">
          <mxGeometry x="435" y="1145" width="20" height="30" as="geometry" />
        </mxCell>
        <mxCell id="rwRMCPvIfiqm_xGu82nB-90" value="" style="rounded=0;whiteSpace=wrap;html=1;fillStyle=hatch;comic=0;shadow=0;glass=0;" parent="1" vertex="1">
          <mxGeometry x="415" y="1145" width="20" height="30" as="geometry" />
        </mxCell>
        <mxCell id="rwRMCPvIfiqm_xGu82nB-91" value="" style="rounded=0;whiteSpace=wrap;html=1;fillStyle=hatch;comic=0;shadow=0;glass=0;" parent="1" vertex="1">
          <mxGeometry x="555" y="1145" width="20" height="30" as="geometry" />
        </mxCell>
        <mxCell id="rwRMCPvIfiqm_xGu82nB-92" value="" style="rounded=0;whiteSpace=wrap;html=1;fillStyle=hatch;comic=0;shadow=0;glass=0;" parent="1" vertex="1">
          <mxGeometry x="535" y="1145" width="20" height="30" as="geometry" />
        </mxCell>
        <mxCell id="rwRMCPvIfiqm_xGu82nB-93" value="" style="rounded=0;whiteSpace=wrap;html=1;fillStyle=hatch;comic=0;shadow=0;glass=0;" parent="1" vertex="1">
          <mxGeometry x="515" y="1145" width="20" height="30" as="geometry" />
        </mxCell>
        <mxCell id="rwRMCPvIfiqm_xGu82nB-94" value="" style="rounded=0;whiteSpace=wrap;html=1;fillStyle=hatch;comic=0;shadow=0;glass=0;" parent="1" vertex="1">
          <mxGeometry x="495" y="1145" width="20" height="30" as="geometry" />
        </mxCell>
        <mxCell id="rwRMCPvIfiqm_xGu82nB-95" value="" style="rounded=0;whiteSpace=wrap;html=1;fillStyle=hatch;comic=0;shadow=0;glass=0;" parent="1" vertex="1">
          <mxGeometry x="635" y="1145" width="20" height="30" as="geometry" />
        </mxCell>
        <mxCell id="rwRMCPvIfiqm_xGu82nB-96" value="" style="rounded=0;whiteSpace=wrap;html=1;fillStyle=hatch;comic=0;shadow=0;glass=0;" parent="1" vertex="1">
          <mxGeometry x="615" y="1145" width="20" height="30" as="geometry" />
        </mxCell>
        <mxCell id="rwRMCPvIfiqm_xGu82nB-97" value="" style="rounded=0;whiteSpace=wrap;html=1;fillStyle=hatch;comic=0;shadow=0;glass=0;" parent="1" vertex="1">
          <mxGeometry x="595" y="1145" width="20" height="30" as="geometry" />
        </mxCell>
        <mxCell id="rwRMCPvIfiqm_xGu82nB-98" value="" style="rounded=0;whiteSpace=wrap;html=1;fillStyle=hatch;comic=0;shadow=0;glass=0;" parent="1" vertex="1">
          <mxGeometry x="575" y="1145" width="20" height="30" as="geometry" />
        </mxCell>
        <mxCell id="rwRMCPvIfiqm_xGu82nB-99" value="" style="rounded=0;whiteSpace=wrap;html=1;fillStyle=hatch;comic=0;shadow=0;glass=0;" parent="1" vertex="1">
          <mxGeometry x="675" y="1145" width="20" height="30" as="geometry" />
        </mxCell>
        <mxCell id="rwRMCPvIfiqm_xGu82nB-100" value="" style="rounded=0;whiteSpace=wrap;html=1;fillStyle=hatch;comic=0;shadow=0;glass=0;" parent="1" vertex="1">
          <mxGeometry x="655" y="1145" width="20" height="30" as="geometry" />
        </mxCell>
        <mxCell id="rwRMCPvIfiqm_xGu82nB-101" value="" style="endArrow=oval;startArrow=oval;html=1;rounded=0;startFill=0;endFill=0;" parent="1" edge="1">
          <mxGeometry width="50" height="50" relative="1" as="geometry">
            <mxPoint x="175" y="1295" as="sourcePoint" />
            <mxPoint x="695" y="1295" as="targetPoint" />
          </mxGeometry>
        </mxCell>
        <mxCell id="rwRMCPvIfiqm_xGu82nB-102" value="&lt;font style=&quot;font-size: 20px;&quot;&gt;L=10.725m&lt;/font&gt;" style="text;html=1;align=center;verticalAlign=middle;whiteSpace=wrap;rounded=0;" parent="1" vertex="1">
          <mxGeometry x="380" y="1265" width="110" height="30" as="geometry" />
        </mxCell>
        <mxCell id="rwRMCPvIfiqm_xGu82nB-103" value="" style="triangle;whiteSpace=wrap;html=1;rotation=270;" parent="1" vertex="1">
          <mxGeometry x="680" y="1215" width="30" height="30" as="geometry" />
        </mxCell>
        <mxCell id="rwRMCPvIfiqm_xGu82nB-104" value="&lt;font style=&quot;font-size: 20px;&quot;&gt;w=79.4kN/m&lt;/font&gt;" style="text;html=1;align=center;verticalAlign=middle;whiteSpace=wrap;rounded=0;" parent="1" vertex="1">
          <mxGeometry x="369" y="1115" width="120" height="30" as="geometry" />
        </mxCell>
        <mxCell id="rwRMCPvIfiqm_xGu82nB-105" value="" style="rounded=0;whiteSpace=wrap;html=1;strokeColor=none;" parent="1" vertex="1">
          <mxGeometry x="-187" y="1470" width="1200" height="210" as="geometry" />
        </mxCell>
        <mxCell id="rwRMCPvIfiqm_xGu82nB-106" value="" style="rounded=0;whiteSpace=wrap;html=1;fillColor=#E6E6E6;" parent="1" vertex="1">
          <mxGeometry x="159" y="1565" width="520" height="20" as="geometry" />
        </mxCell>
        <mxCell id="rwRMCPvIfiqm_xGu82nB-107" value="" style="triangle;whiteSpace=wrap;html=1;rotation=270;" parent="1" vertex="1">
          <mxGeometry x="144" y="1585" width="30" height="30" as="geometry" />
        </mxCell>
        <mxCell id="rwRMCPvIfiqm_xGu82nB-108" value="" style="rounded=0;whiteSpace=wrap;html=1;fillStyle=hatch;comic=0;shadow=0;glass=0;" parent="1" vertex="1">
          <mxGeometry x="159" y="1515" width="20" height="30" as="geometry" />
        </mxCell>
        <mxCell id="rwRMCPvIfiqm_xGu82nB-109" value="" style="rounded=0;whiteSpace=wrap;html=1;fillStyle=hatch;comic=0;shadow=0;glass=0;" parent="1" vertex="1">
          <mxGeometry x="179" y="1515" width="20" height="30" as="geometry" />
        </mxCell>
        <mxCell id="rwRMCPvIfiqm_xGu82nB-110" value="" style="rounded=0;whiteSpace=wrap;html=1;fillStyle=hatch;comic=0;shadow=0;glass=0;" parent="1" vertex="1">
          <mxGeometry x="219" y="1515" width="20" height="30" as="geometry" />
        </mxCell>
        <mxCell id="rwRMCPvIfiqm_xGu82nB-111" value="" style="rounded=0;whiteSpace=wrap;html=1;fillStyle=hatch;comic=0;shadow=0;glass=0;" parent="1" vertex="1">
          <mxGeometry x="199" y="1515" width="20" height="30" as="geometry" />
        </mxCell>
        <mxCell id="rwRMCPvIfiqm_xGu82nB-112" value="" style="rounded=0;whiteSpace=wrap;html=1;fillStyle=hatch;comic=0;shadow=0;glass=0;" parent="1" vertex="1">
          <mxGeometry x="299" y="1515" width="20" height="30" as="geometry" />
        </mxCell>
        <mxCell id="rwRMCPvIfiqm_xGu82nB-113" value="" style="rounded=0;whiteSpace=wrap;html=1;fillStyle=hatch;comic=0;shadow=0;glass=0;" parent="1" vertex="1">
          <mxGeometry x="279" y="1515" width="20" height="30" as="geometry" />
        </mxCell>
        <mxCell id="rwRMCPvIfiqm_xGu82nB-114" value="" style="rounded=0;whiteSpace=wrap;html=1;fillStyle=hatch;comic=0;shadow=0;glass=0;" parent="1" vertex="1">
          <mxGeometry x="259" y="1515" width="20" height="30" as="geometry" />
        </mxCell>
        <mxCell id="rwRMCPvIfiqm_xGu82nB-115" value="" style="rounded=0;whiteSpace=wrap;html=1;fillStyle=hatch;comic=0;shadow=0;glass=0;" parent="1" vertex="1">
          <mxGeometry x="239" y="1515" width="20" height="30" as="geometry" />
        </mxCell>
        <mxCell id="rwRMCPvIfiqm_xGu82nB-116" value="" style="rounded=0;whiteSpace=wrap;html=1;fillStyle=hatch;comic=0;shadow=0;glass=0;" parent="1" vertex="1">
          <mxGeometry x="379" y="1515" width="20" height="30" as="geometry" />
        </mxCell>
        <mxCell id="rwRMCPvIfiqm_xGu82nB-117" value="" style="rounded=0;whiteSpace=wrap;html=1;fillStyle=hatch;comic=0;shadow=0;glass=0;" parent="1" vertex="1">
          <mxGeometry x="359" y="1515" width="20" height="30" as="geometry" />
        </mxCell>
        <mxCell id="rwRMCPvIfiqm_xGu82nB-118" value="" style="rounded=0;whiteSpace=wrap;html=1;fillStyle=hatch;comic=0;shadow=0;glass=0;" parent="1" vertex="1">
          <mxGeometry x="339" y="1515" width="20" height="30" as="geometry" />
        </mxCell>
        <mxCell id="rwRMCPvIfiqm_xGu82nB-119" value="" style="rounded=0;whiteSpace=wrap;html=1;fillStyle=hatch;comic=0;shadow=0;glass=0;" parent="1" vertex="1">
          <mxGeometry x="319" y="1515" width="20" height="30" as="geometry" />
        </mxCell>
        <mxCell id="rwRMCPvIfiqm_xGu82nB-120" value="" style="rounded=0;whiteSpace=wrap;html=1;fillStyle=hatch;comic=0;shadow=0;glass=0;" parent="1" vertex="1">
          <mxGeometry x="459" y="1515" width="20" height="30" as="geometry" />
        </mxCell>
        <mxCell id="rwRMCPvIfiqm_xGu82nB-121" value="" style="rounded=0;whiteSpace=wrap;html=1;fillStyle=hatch;comic=0;shadow=0;glass=0;" parent="1" vertex="1">
          <mxGeometry x="439" y="1515" width="20" height="30" as="geometry" />
        </mxCell>
        <mxCell id="rwRMCPvIfiqm_xGu82nB-122" value="" style="rounded=0;whiteSpace=wrap;html=1;fillStyle=hatch;comic=0;shadow=0;glass=0;" parent="1" vertex="1">
          <mxGeometry x="419" y="1515" width="20" height="30" as="geometry" />
        </mxCell>
        <mxCell id="rwRMCPvIfiqm_xGu82nB-123" value="" style="rounded=0;whiteSpace=wrap;html=1;fillStyle=hatch;comic=0;shadow=0;glass=0;" parent="1" vertex="1">
          <mxGeometry x="399" y="1515" width="20" height="30" as="geometry" />
        </mxCell>
        <mxCell id="rwRMCPvIfiqm_xGu82nB-124" value="" style="rounded=0;whiteSpace=wrap;html=1;fillStyle=hatch;comic=0;shadow=0;glass=0;" parent="1" vertex="1">
          <mxGeometry x="539" y="1515" width="20" height="30" as="geometry" />
        </mxCell>
        <mxCell id="rwRMCPvIfiqm_xGu82nB-125" value="" style="rounded=0;whiteSpace=wrap;html=1;fillStyle=hatch;comic=0;shadow=0;glass=0;" parent="1" vertex="1">
          <mxGeometry x="519" y="1515" width="20" height="30" as="geometry" />
        </mxCell>
        <mxCell id="rwRMCPvIfiqm_xGu82nB-126" value="" style="rounded=0;whiteSpace=wrap;html=1;fillStyle=hatch;comic=0;shadow=0;glass=0;" parent="1" vertex="1">
          <mxGeometry x="499" y="1515" width="20" height="30" as="geometry" />
        </mxCell>
        <mxCell id="rwRMCPvIfiqm_xGu82nB-127" value="" style="rounded=0;whiteSpace=wrap;html=1;fillStyle=hatch;comic=0;shadow=0;glass=0;" parent="1" vertex="1">
          <mxGeometry x="479" y="1515" width="20" height="30" as="geometry" />
        </mxCell>
        <mxCell id="rwRMCPvIfiqm_xGu82nB-128" value="" style="rounded=0;whiteSpace=wrap;html=1;fillStyle=hatch;comic=0;shadow=0;glass=0;" parent="1" vertex="1">
          <mxGeometry x="619" y="1515" width="20" height="30" as="geometry" />
        </mxCell>
        <mxCell id="rwRMCPvIfiqm_xGu82nB-129" value="" style="rounded=0;whiteSpace=wrap;html=1;fillStyle=hatch;comic=0;shadow=0;glass=0;" parent="1" vertex="1">
          <mxGeometry x="599" y="1515" width="20" height="30" as="geometry" />
        </mxCell>
        <mxCell id="rwRMCPvIfiqm_xGu82nB-130" value="" style="rounded=0;whiteSpace=wrap;html=1;fillStyle=hatch;comic=0;shadow=0;glass=0;" parent="1" vertex="1">
          <mxGeometry x="579" y="1515" width="20" height="30" as="geometry" />
        </mxCell>
        <mxCell id="rwRMCPvIfiqm_xGu82nB-131" value="" style="rounded=0;whiteSpace=wrap;html=1;fillStyle=hatch;comic=0;shadow=0;glass=0;" parent="1" vertex="1">
          <mxGeometry x="559" y="1515" width="20" height="30" as="geometry" />
        </mxCell>
        <mxCell id="rwRMCPvIfiqm_xGu82nB-132" value="" style="rounded=0;whiteSpace=wrap;html=1;fillStyle=hatch;comic=0;shadow=0;glass=0;" parent="1" vertex="1">
          <mxGeometry x="659" y="1515" width="20" height="30" as="geometry" />
        </mxCell>
        <mxCell id="rwRMCPvIfiqm_xGu82nB-133" value="" style="rounded=0;whiteSpace=wrap;html=1;fillStyle=hatch;comic=0;shadow=0;glass=0;" parent="1" vertex="1">
          <mxGeometry x="639" y="1515" width="20" height="30" as="geometry" />
        </mxCell>
        <mxCell id="rwRMCPvIfiqm_xGu82nB-134" value="" style="endArrow=oval;startArrow=oval;html=1;rounded=0;startFill=0;endFill=0;" parent="1" edge="1">
          <mxGeometry width="50" height="50" relative="1" as="geometry">
            <mxPoint x="159" y="1665" as="sourcePoint" />
            <mxPoint x="679" y="1665" as="targetPoint" />
          </mxGeometry>
        </mxCell>
        <mxCell id="rwRMCPvIfiqm_xGu82nB-135" value="&lt;font style=&quot;font-size: 20px;&quot;&gt;L=6.0m&lt;/font&gt;" style="text;html=1;align=center;verticalAlign=middle;whiteSpace=wrap;rounded=0;" parent="1" vertex="1">
          <mxGeometry x="364" y="1635" width="110" height="30" as="geometry" />
        </mxCell>
        <mxCell id="rwRMCPvIfiqm_xGu82nB-136" value="" style="triangle;whiteSpace=wrap;html=1;rotation=270;" parent="1" vertex="1">
          <mxGeometry x="664" y="1585" width="30" height="30" as="geometry" />
        </mxCell>
        <mxCell id="rwRMCPvIfiqm_xGu82nB-137" value="&lt;font style=&quot;font-size: 20px;&quot;&gt;w=75.8kN/m&lt;/font&gt;" style="text;html=1;align=center;verticalAlign=middle;whiteSpace=wrap;rounded=0;" parent="1" vertex="1">
          <mxGeometry x="353" y="1485" width="120" height="30" as="geometry" />
        </mxCell>
        <mxCell id="rwRMCPvIfiqm_xGu82nB-138" value="" style="rounded=0;whiteSpace=wrap;html=1;strokeColor=none;" parent="1" vertex="1">
          <mxGeometry x="-187" y="1850" width="1200" height="210" as="geometry" />
        </mxCell>
        <mxCell id="rwRMCPvIfiqm_xGu82nB-139" value="" style="rounded=0;whiteSpace=wrap;html=1;fillColor=#E6E6E6;" parent="1" vertex="1">
          <mxGeometry x="159" y="1945" width="520" height="20" as="geometry" />
        </mxCell>
        <mxCell id="rwRMCPvIfiqm_xGu82nB-140" value="" style="triangle;whiteSpace=wrap;html=1;rotation=270;" parent="1" vertex="1">
          <mxGeometry x="144" y="1965" width="30" height="30" as="geometry" />
        </mxCell>
        <mxCell id="rwRMCPvIfiqm_xGu82nB-141" value="" style="rounded=0;whiteSpace=wrap;html=1;fillStyle=hatch;comic=0;shadow=0;glass=0;" parent="1" vertex="1">
          <mxGeometry x="159" y="1895" width="20" height="30" as="geometry" />
        </mxCell>
        <mxCell id="rwRMCPvIfiqm_xGu82nB-142" value="" style="rounded=0;whiteSpace=wrap;html=1;fillStyle=hatch;comic=0;shadow=0;glass=0;" parent="1" vertex="1">
          <mxGeometry x="179" y="1895" width="20" height="30" as="geometry" />
        </mxCell>
        <mxCell id="rwRMCPvIfiqm_xGu82nB-143" value="" style="rounded=0;whiteSpace=wrap;html=1;fillStyle=hatch;comic=0;shadow=0;glass=0;" parent="1" vertex="1">
          <mxGeometry x="219" y="1895" width="20" height="30" as="geometry" />
        </mxCell>
        <mxCell id="rwRMCPvIfiqm_xGu82nB-144" value="" style="rounded=0;whiteSpace=wrap;html=1;fillStyle=hatch;comic=0;shadow=0;glass=0;" parent="1" vertex="1">
          <mxGeometry x="199" y="1895" width="20" height="30" as="geometry" />
        </mxCell>
        <mxCell id="rwRMCPvIfiqm_xGu82nB-145" value="" style="rounded=0;whiteSpace=wrap;html=1;fillStyle=hatch;comic=0;shadow=0;glass=0;" parent="1" vertex="1">
          <mxGeometry x="299" y="1895" width="20" height="30" as="geometry" />
        </mxCell>
        <mxCell id="rwRMCPvIfiqm_xGu82nB-146" value="" style="rounded=0;whiteSpace=wrap;html=1;fillStyle=hatch;comic=0;shadow=0;glass=0;" parent="1" vertex="1">
          <mxGeometry x="279" y="1895" width="20" height="30" as="geometry" />
        </mxCell>
        <mxCell id="rwRMCPvIfiqm_xGu82nB-147" value="" style="rounded=0;whiteSpace=wrap;html=1;fillStyle=hatch;comic=0;shadow=0;glass=0;" parent="1" vertex="1">
          <mxGeometry x="259" y="1895" width="20" height="30" as="geometry" />
        </mxCell>
        <mxCell id="rwRMCPvIfiqm_xGu82nB-148" value="" style="rounded=0;whiteSpace=wrap;html=1;fillStyle=hatch;comic=0;shadow=0;glass=0;" parent="1" vertex="1">
          <mxGeometry x="239" y="1895" width="20" height="30" as="geometry" />
        </mxCell>
        <mxCell id="rwRMCPvIfiqm_xGu82nB-149" value="" style="rounded=0;whiteSpace=wrap;html=1;fillStyle=hatch;comic=0;shadow=0;glass=0;" parent="1" vertex="1">
          <mxGeometry x="379" y="1895" width="20" height="30" as="geometry" />
        </mxCell>
        <mxCell id="rwRMCPvIfiqm_xGu82nB-150" value="" style="rounded=0;whiteSpace=wrap;html=1;fillStyle=hatch;comic=0;shadow=0;glass=0;" parent="1" vertex="1">
          <mxGeometry x="359" y="1895" width="20" height="30" as="geometry" />
        </mxCell>
        <mxCell id="rwRMCPvIfiqm_xGu82nB-151" value="" style="rounded=0;whiteSpace=wrap;html=1;fillStyle=hatch;comic=0;shadow=0;glass=0;" parent="1" vertex="1">
          <mxGeometry x="339" y="1895" width="20" height="30" as="geometry" />
        </mxCell>
        <mxCell id="rwRMCPvIfiqm_xGu82nB-152" value="" style="rounded=0;whiteSpace=wrap;html=1;fillStyle=hatch;comic=0;shadow=0;glass=0;" parent="1" vertex="1">
          <mxGeometry x="319" y="1895" width="20" height="30" as="geometry" />
        </mxCell>
        <mxCell id="rwRMCPvIfiqm_xGu82nB-153" value="" style="rounded=0;whiteSpace=wrap;html=1;fillStyle=hatch;comic=0;shadow=0;glass=0;" parent="1" vertex="1">
          <mxGeometry x="459" y="1895" width="20" height="30" as="geometry" />
        </mxCell>
        <mxCell id="rwRMCPvIfiqm_xGu82nB-154" value="" style="rounded=0;whiteSpace=wrap;html=1;fillStyle=hatch;comic=0;shadow=0;glass=0;" parent="1" vertex="1">
          <mxGeometry x="439" y="1895" width="20" height="30" as="geometry" />
        </mxCell>
        <mxCell id="rwRMCPvIfiqm_xGu82nB-155" value="" style="rounded=0;whiteSpace=wrap;html=1;fillStyle=hatch;comic=0;shadow=0;glass=0;" parent="1" vertex="1">
          <mxGeometry x="419" y="1895" width="20" height="30" as="geometry" />
        </mxCell>
        <mxCell id="rwRMCPvIfiqm_xGu82nB-156" value="" style="rounded=0;whiteSpace=wrap;html=1;fillStyle=hatch;comic=0;shadow=0;glass=0;" parent="1" vertex="1">
          <mxGeometry x="399" y="1895" width="20" height="30" as="geometry" />
        </mxCell>
        <mxCell id="rwRMCPvIfiqm_xGu82nB-157" value="" style="rounded=0;whiteSpace=wrap;html=1;fillStyle=hatch;comic=0;shadow=0;glass=0;" parent="1" vertex="1">
          <mxGeometry x="539" y="1895" width="20" height="30" as="geometry" />
        </mxCell>
        <mxCell id="rwRMCPvIfiqm_xGu82nB-158" value="" style="rounded=0;whiteSpace=wrap;html=1;fillStyle=hatch;comic=0;shadow=0;glass=0;" parent="1" vertex="1">
          <mxGeometry x="519" y="1895" width="20" height="30" as="geometry" />
        </mxCell>
        <mxCell id="rwRMCPvIfiqm_xGu82nB-159" value="" style="rounded=0;whiteSpace=wrap;html=1;fillStyle=hatch;comic=0;shadow=0;glass=0;" parent="1" vertex="1">
          <mxGeometry x="499" y="1895" width="20" height="30" as="geometry" />
        </mxCell>
        <mxCell id="rwRMCPvIfiqm_xGu82nB-160" value="" style="rounded=0;whiteSpace=wrap;html=1;fillStyle=hatch;comic=0;shadow=0;glass=0;" parent="1" vertex="1">
          <mxGeometry x="479" y="1895" width="20" height="30" as="geometry" />
        </mxCell>
        <mxCell id="rwRMCPvIfiqm_xGu82nB-161" value="" style="rounded=0;whiteSpace=wrap;html=1;fillStyle=hatch;comic=0;shadow=0;glass=0;" parent="1" vertex="1">
          <mxGeometry x="619" y="1895" width="20" height="30" as="geometry" />
        </mxCell>
        <mxCell id="rwRMCPvIfiqm_xGu82nB-162" value="" style="rounded=0;whiteSpace=wrap;html=1;fillStyle=hatch;comic=0;shadow=0;glass=0;" parent="1" vertex="1">
          <mxGeometry x="599" y="1895" width="20" height="30" as="geometry" />
        </mxCell>
        <mxCell id="rwRMCPvIfiqm_xGu82nB-163" value="" style="rounded=0;whiteSpace=wrap;html=1;fillStyle=hatch;comic=0;shadow=0;glass=0;" parent="1" vertex="1">
          <mxGeometry x="579" y="1895" width="20" height="30" as="geometry" />
        </mxCell>
        <mxCell id="rwRMCPvIfiqm_xGu82nB-164" value="" style="rounded=0;whiteSpace=wrap;html=1;fillStyle=hatch;comic=0;shadow=0;glass=0;" parent="1" vertex="1">
          <mxGeometry x="559" y="1895" width="20" height="30" as="geometry" />
        </mxCell>
        <mxCell id="rwRMCPvIfiqm_xGu82nB-165" value="" style="rounded=0;whiteSpace=wrap;html=1;fillStyle=hatch;comic=0;shadow=0;glass=0;" parent="1" vertex="1">
          <mxGeometry x="659" y="1895" width="20" height="30" as="geometry" />
        </mxCell>
        <mxCell id="rwRMCPvIfiqm_xGu82nB-166" value="" style="rounded=0;whiteSpace=wrap;html=1;fillStyle=hatch;comic=0;shadow=0;glass=0;" parent="1" vertex="1">
          <mxGeometry x="639" y="1895" width="20" height="30" as="geometry" />
        </mxCell>
        <mxCell id="rwRMCPvIfiqm_xGu82nB-167" value="" style="endArrow=oval;startArrow=oval;html=1;rounded=0;startFill=0;endFill=0;" parent="1" edge="1">
          <mxGeometry width="50" height="50" relative="1" as="geometry">
            <mxPoint x="159" y="2045" as="sourcePoint" />
            <mxPoint x="679" y="2045" as="targetPoint" />
          </mxGeometry>
        </mxCell>
        <mxCell id="rwRMCPvIfiqm_xGu82nB-168" value="&lt;font style=&quot;font-size: 20px;&quot;&gt;L=10.65m&lt;/font&gt;" style="text;html=1;align=center;verticalAlign=middle;whiteSpace=wrap;rounded=0;" parent="1" vertex="1">
          <mxGeometry x="364" y="2015" width="110" height="30" as="geometry" />
        </mxCell>
        <mxCell id="rwRMCPvIfiqm_xGu82nB-169" value="" style="triangle;whiteSpace=wrap;html=1;rotation=270;" parent="1" vertex="1">
          <mxGeometry x="664" y="1965" width="30" height="30" as="geometry" />
        </mxCell>
        <mxCell id="rwRMCPvIfiqm_xGu82nB-170" value="&lt;font style=&quot;font-size: 20px;&quot;&gt;w=54.7kN/m&lt;/font&gt;" style="text;html=1;align=center;verticalAlign=middle;whiteSpace=wrap;rounded=0;" parent="1" vertex="1">
          <mxGeometry x="353" y="1865" width="120" height="30" as="geometry" />
        </mxCell>
        <mxCell id="rwRMCPvIfiqm_xGu82nB-171" value="" style="rounded=0;whiteSpace=wrap;html=1;strokeColor=none;" parent="1" vertex="1">
          <mxGeometry x="-195" y="2260" width="1200" height="210" as="geometry" />
        </mxCell>
        <mxCell id="rwRMCPvIfiqm_xGu82nB-172" value="" style="rounded=0;whiteSpace=wrap;html=1;fillColor=#E6E6E6;" parent="1" vertex="1">
          <mxGeometry x="151" y="2355" width="520" height="20" as="geometry" />
        </mxCell>
        <mxCell id="rwRMCPvIfiqm_xGu82nB-173" value="" style="triangle;whiteSpace=wrap;html=1;rotation=270;" parent="1" vertex="1">
          <mxGeometry x="136" y="2375" width="30" height="30" as="geometry" />
        </mxCell>
        <mxCell id="rwRMCPvIfiqm_xGu82nB-174" value="" style="rounded=0;whiteSpace=wrap;html=1;fillStyle=hatch;comic=0;shadow=0;glass=0;" parent="1" vertex="1">
          <mxGeometry x="151" y="2305" width="20" height="30" as="geometry" />
        </mxCell>
        <mxCell id="rwRMCPvIfiqm_xGu82nB-175" value="" style="rounded=0;whiteSpace=wrap;html=1;fillStyle=hatch;comic=0;shadow=0;glass=0;" parent="1" vertex="1">
          <mxGeometry x="171" y="2305" width="20" height="30" as="geometry" />
        </mxCell>
        <mxCell id="rwRMCPvIfiqm_xGu82nB-176" value="" style="rounded=0;whiteSpace=wrap;html=1;fillStyle=hatch;comic=0;shadow=0;glass=0;" parent="1" vertex="1">
          <mxGeometry x="211" y="2305" width="20" height="30" as="geometry" />
        </mxCell>
        <mxCell id="rwRMCPvIfiqm_xGu82nB-177" value="" style="rounded=0;whiteSpace=wrap;html=1;fillStyle=hatch;comic=0;shadow=0;glass=0;" parent="1" vertex="1">
          <mxGeometry x="191" y="2305" width="20" height="30" as="geometry" />
        </mxCell>
        <mxCell id="rwRMCPvIfiqm_xGu82nB-178" value="" style="rounded=0;whiteSpace=wrap;html=1;fillStyle=hatch;comic=0;shadow=0;glass=0;" parent="1" vertex="1">
          <mxGeometry x="291" y="2305" width="20" height="30" as="geometry" />
        </mxCell>
        <mxCell id="rwRMCPvIfiqm_xGu82nB-179" value="" style="rounded=0;whiteSpace=wrap;html=1;fillStyle=hatch;comic=0;shadow=0;glass=0;" parent="1" vertex="1">
          <mxGeometry x="271" y="2305" width="20" height="30" as="geometry" />
        </mxCell>
        <mxCell id="rwRMCPvIfiqm_xGu82nB-180" value="" style="rounded=0;whiteSpace=wrap;html=1;fillStyle=hatch;comic=0;shadow=0;glass=0;" parent="1" vertex="1">
          <mxGeometry x="251" y="2305" width="20" height="30" as="geometry" />
        </mxCell>
        <mxCell id="rwRMCPvIfiqm_xGu82nB-181" value="" style="rounded=0;whiteSpace=wrap;html=1;fillStyle=hatch;comic=0;shadow=0;glass=0;" parent="1" vertex="1">
          <mxGeometry x="231" y="2305" width="20" height="30" as="geometry" />
        </mxCell>
        <mxCell id="rwRMCPvIfiqm_xGu82nB-182" value="" style="rounded=0;whiteSpace=wrap;html=1;fillStyle=hatch;comic=0;shadow=0;glass=0;" parent="1" vertex="1">
          <mxGeometry x="371" y="2305" width="20" height="30" as="geometry" />
        </mxCell>
        <mxCell id="rwRMCPvIfiqm_xGu82nB-183" value="" style="rounded=0;whiteSpace=wrap;html=1;fillStyle=hatch;comic=0;shadow=0;glass=0;" parent="1" vertex="1">
          <mxGeometry x="351" y="2305" width="20" height="30" as="geometry" />
        </mxCell>
        <mxCell id="rwRMCPvIfiqm_xGu82nB-184" value="" style="rounded=0;whiteSpace=wrap;html=1;fillStyle=hatch;comic=0;shadow=0;glass=0;" parent="1" vertex="1">
          <mxGeometry x="331" y="2305" width="20" height="30" as="geometry" />
        </mxCell>
        <mxCell id="rwRMCPvIfiqm_xGu82nB-185" value="" style="rounded=0;whiteSpace=wrap;html=1;fillStyle=hatch;comic=0;shadow=0;glass=0;" parent="1" vertex="1">
          <mxGeometry x="311" y="2305" width="20" height="30" as="geometry" />
        </mxCell>
        <mxCell id="rwRMCPvIfiqm_xGu82nB-186" value="" style="rounded=0;whiteSpace=wrap;html=1;fillStyle=hatch;comic=0;shadow=0;glass=0;" parent="1" vertex="1">
          <mxGeometry x="451" y="2305" width="20" height="30" as="geometry" />
        </mxCell>
        <mxCell id="rwRMCPvIfiqm_xGu82nB-187" value="" style="rounded=0;whiteSpace=wrap;html=1;fillStyle=hatch;comic=0;shadow=0;glass=0;" parent="1" vertex="1">
          <mxGeometry x="431" y="2305" width="20" height="30" as="geometry" />
        </mxCell>
        <mxCell id="rwRMCPvIfiqm_xGu82nB-188" value="" style="rounded=0;whiteSpace=wrap;html=1;fillStyle=hatch;comic=0;shadow=0;glass=0;" parent="1" vertex="1">
          <mxGeometry x="411" y="2305" width="20" height="30" as="geometry" />
        </mxCell>
        <mxCell id="rwRMCPvIfiqm_xGu82nB-189" value="" style="rounded=0;whiteSpace=wrap;html=1;fillStyle=hatch;comic=0;shadow=0;glass=0;" parent="1" vertex="1">
          <mxGeometry x="391" y="2305" width="20" height="30" as="geometry" />
        </mxCell>
        <mxCell id="rwRMCPvIfiqm_xGu82nB-190" value="" style="rounded=0;whiteSpace=wrap;html=1;fillStyle=hatch;comic=0;shadow=0;glass=0;" parent="1" vertex="1">
          <mxGeometry x="531" y="2305" width="20" height="30" as="geometry" />
        </mxCell>
        <mxCell id="rwRMCPvIfiqm_xGu82nB-191" value="" style="rounded=0;whiteSpace=wrap;html=1;fillStyle=hatch;comic=0;shadow=0;glass=0;" parent="1" vertex="1">
          <mxGeometry x="511" y="2305" width="20" height="30" as="geometry" />
        </mxCell>
        <mxCell id="rwRMCPvIfiqm_xGu82nB-192" value="" style="rounded=0;whiteSpace=wrap;html=1;fillStyle=hatch;comic=0;shadow=0;glass=0;" parent="1" vertex="1">
          <mxGeometry x="491" y="2305" width="20" height="30" as="geometry" />
        </mxCell>
        <mxCell id="rwRMCPvIfiqm_xGu82nB-193" value="" style="rounded=0;whiteSpace=wrap;html=1;fillStyle=hatch;comic=0;shadow=0;glass=0;" parent="1" vertex="1">
          <mxGeometry x="471" y="2305" width="20" height="30" as="geometry" />
        </mxCell>
        <mxCell id="rwRMCPvIfiqm_xGu82nB-194" value="" style="rounded=0;whiteSpace=wrap;html=1;fillStyle=hatch;comic=0;shadow=0;glass=0;" parent="1" vertex="1">
          <mxGeometry x="611" y="2305" width="20" height="30" as="geometry" />
        </mxCell>
        <mxCell id="rwRMCPvIfiqm_xGu82nB-195" value="" style="rounded=0;whiteSpace=wrap;html=1;fillStyle=hatch;comic=0;shadow=0;glass=0;" parent="1" vertex="1">
          <mxGeometry x="591" y="2305" width="20" height="30" as="geometry" />
        </mxCell>
        <mxCell id="rwRMCPvIfiqm_xGu82nB-196" value="" style="rounded=0;whiteSpace=wrap;html=1;fillStyle=hatch;comic=0;shadow=0;glass=0;" parent="1" vertex="1">
          <mxGeometry x="571" y="2305" width="20" height="30" as="geometry" />
        </mxCell>
        <mxCell id="rwRMCPvIfiqm_xGu82nB-197" value="" style="rounded=0;whiteSpace=wrap;html=1;fillStyle=hatch;comic=0;shadow=0;glass=0;" parent="1" vertex="1">
          <mxGeometry x="551" y="2305" width="20" height="30" as="geometry" />
        </mxCell>
        <mxCell id="rwRMCPvIfiqm_xGu82nB-198" value="" style="rounded=0;whiteSpace=wrap;html=1;fillStyle=hatch;comic=0;shadow=0;glass=0;" parent="1" vertex="1">
          <mxGeometry x="651" y="2305" width="20" height="30" as="geometry" />
        </mxCell>
        <mxCell id="rwRMCPvIfiqm_xGu82nB-199" value="" style="rounded=0;whiteSpace=wrap;html=1;fillStyle=hatch;comic=0;shadow=0;glass=0;" parent="1" vertex="1">
          <mxGeometry x="631" y="2305" width="20" height="30" as="geometry" />
        </mxCell>
        <mxCell id="rwRMCPvIfiqm_xGu82nB-200" value="" style="endArrow=oval;startArrow=oval;html=1;rounded=0;startFill=0;endFill=0;" parent="1" edge="1">
          <mxGeometry width="50" height="50" relative="1" as="geometry">
            <mxPoint x="151" y="2455" as="sourcePoint" />
            <mxPoint x="671" y="2455" as="targetPoint" />
          </mxGeometry>
        </mxCell>
        <mxCell id="rwRMCPvIfiqm_xGu82nB-201" value="&lt;font style=&quot;font-size: 20px;&quot;&gt;L=10.725m&lt;/font&gt;" style="text;html=1;align=center;verticalAlign=middle;whiteSpace=wrap;rounded=0;" parent="1" vertex="1">
          <mxGeometry x="356" y="2425" width="110" height="30" as="geometry" />
        </mxCell>
        <mxCell id="rwRMCPvIfiqm_xGu82nB-202" value="" style="triangle;whiteSpace=wrap;html=1;rotation=270;" parent="1" vertex="1">
          <mxGeometry x="656" y="2375" width="30" height="30" as="geometry" />
        </mxCell>
        <mxCell id="rwRMCPvIfiqm_xGu82nB-203" value="&lt;font style=&quot;font-size: 20px;&quot;&gt;w=35.8kN/m&lt;/font&gt;" style="text;html=1;align=center;verticalAlign=middle;whiteSpace=wrap;rounded=0;" parent="1" vertex="1">
          <mxGeometry x="345" y="2275" width="120" height="30" as="geometry" />
        </mxCell>
        <mxCell id="rwRMCPvIfiqm_xGu82nB-204" value="" style="rounded=0;whiteSpace=wrap;html=1;strokeColor=none;" parent="1" vertex="1">
          <mxGeometry x="-210" y="2650" width="1200" height="210" as="geometry" />
        </mxCell>
        <mxCell id="rwRMCPvIfiqm_xGu82nB-205" value="" style="rounded=0;whiteSpace=wrap;html=1;fillColor=#E6E6E6;" parent="1" vertex="1">
          <mxGeometry x="136" y="2745" width="520" height="20" as="geometry" />
        </mxCell>
        <mxCell id="rwRMCPvIfiqm_xGu82nB-206" value="" style="triangle;whiteSpace=wrap;html=1;rotation=270;" parent="1" vertex="1">
          <mxGeometry x="121" y="2765" width="30" height="30" as="geometry" />
        </mxCell>
        <mxCell id="rwRMCPvIfiqm_xGu82nB-207" value="" style="rounded=0;whiteSpace=wrap;html=1;fillStyle=hatch;comic=0;shadow=0;glass=0;" parent="1" vertex="1">
          <mxGeometry x="136" y="2695" width="20" height="30" as="geometry" />
        </mxCell>
        <mxCell id="rwRMCPvIfiqm_xGu82nB-208" value="" style="rounded=0;whiteSpace=wrap;html=1;fillStyle=hatch;comic=0;shadow=0;glass=0;" parent="1" vertex="1">
          <mxGeometry x="156" y="2695" width="20" height="30" as="geometry" />
        </mxCell>
        <mxCell id="rwRMCPvIfiqm_xGu82nB-209" value="" style="rounded=0;whiteSpace=wrap;html=1;fillStyle=hatch;comic=0;shadow=0;glass=0;" parent="1" vertex="1">
          <mxGeometry x="196" y="2695" width="20" height="30" as="geometry" />
        </mxCell>
        <mxCell id="rwRMCPvIfiqm_xGu82nB-210" value="" style="rounded=0;whiteSpace=wrap;html=1;fillStyle=hatch;comic=0;shadow=0;glass=0;" parent="1" vertex="1">
          <mxGeometry x="176" y="2695" width="20" height="30" as="geometry" />
        </mxCell>
        <mxCell id="rwRMCPvIfiqm_xGu82nB-211" value="" style="rounded=0;whiteSpace=wrap;html=1;fillStyle=hatch;comic=0;shadow=0;glass=0;" parent="1" vertex="1">
          <mxGeometry x="276" y="2695" width="20" height="30" as="geometry" />
        </mxCell>
        <mxCell id="rwRMCPvIfiqm_xGu82nB-212" value="" style="rounded=0;whiteSpace=wrap;html=1;fillStyle=hatch;comic=0;shadow=0;glass=0;" parent="1" vertex="1">
          <mxGeometry x="256" y="2695" width="20" height="30" as="geometry" />
        </mxCell>
        <mxCell id="rwRMCPvIfiqm_xGu82nB-213" value="" style="rounded=0;whiteSpace=wrap;html=1;fillStyle=hatch;comic=0;shadow=0;glass=0;" parent="1" vertex="1">
          <mxGeometry x="236" y="2695" width="20" height="30" as="geometry" />
        </mxCell>
        <mxCell id="rwRMCPvIfiqm_xGu82nB-214" value="" style="rounded=0;whiteSpace=wrap;html=1;fillStyle=hatch;comic=0;shadow=0;glass=0;" parent="1" vertex="1">
          <mxGeometry x="216" y="2695" width="20" height="30" as="geometry" />
        </mxCell>
        <mxCell id="rwRMCPvIfiqm_xGu82nB-215" value="" style="rounded=0;whiteSpace=wrap;html=1;fillStyle=hatch;comic=0;shadow=0;glass=0;" parent="1" vertex="1">
          <mxGeometry x="356" y="2695" width="20" height="30" as="geometry" />
        </mxCell>
        <mxCell id="rwRMCPvIfiqm_xGu82nB-216" value="" style="rounded=0;whiteSpace=wrap;html=1;fillStyle=hatch;comic=0;shadow=0;glass=0;" parent="1" vertex="1">
          <mxGeometry x="336" y="2695" width="20" height="30" as="geometry" />
        </mxCell>
        <mxCell id="rwRMCPvIfiqm_xGu82nB-217" value="" style="rounded=0;whiteSpace=wrap;html=1;fillStyle=hatch;comic=0;shadow=0;glass=0;" parent="1" vertex="1">
          <mxGeometry x="316" y="2695" width="20" height="30" as="geometry" />
        </mxCell>
        <mxCell id="rwRMCPvIfiqm_xGu82nB-218" value="" style="rounded=0;whiteSpace=wrap;html=1;fillStyle=hatch;comic=0;shadow=0;glass=0;" parent="1" vertex="1">
          <mxGeometry x="296" y="2695" width="20" height="30" as="geometry" />
        </mxCell>
        <mxCell id="rwRMCPvIfiqm_xGu82nB-219" value="" style="rounded=0;whiteSpace=wrap;html=1;fillStyle=hatch;comic=0;shadow=0;glass=0;" parent="1" vertex="1">
          <mxGeometry x="436" y="2695" width="20" height="30" as="geometry" />
        </mxCell>
        <mxCell id="rwRMCPvIfiqm_xGu82nB-220" value="" style="rounded=0;whiteSpace=wrap;html=1;fillStyle=hatch;comic=0;shadow=0;glass=0;" parent="1" vertex="1">
          <mxGeometry x="416" y="2695" width="20" height="30" as="geometry" />
        </mxCell>
        <mxCell id="rwRMCPvIfiqm_xGu82nB-221" value="" style="rounded=0;whiteSpace=wrap;html=1;fillStyle=hatch;comic=0;shadow=0;glass=0;" parent="1" vertex="1">
          <mxGeometry x="396" y="2695" width="20" height="30" as="geometry" />
        </mxCell>
        <mxCell id="rwRMCPvIfiqm_xGu82nB-222" value="" style="rounded=0;whiteSpace=wrap;html=1;fillStyle=hatch;comic=0;shadow=0;glass=0;" parent="1" vertex="1">
          <mxGeometry x="376" y="2695" width="20" height="30" as="geometry" />
        </mxCell>
        <mxCell id="rwRMCPvIfiqm_xGu82nB-223" value="" style="rounded=0;whiteSpace=wrap;html=1;fillStyle=hatch;comic=0;shadow=0;glass=0;" parent="1" vertex="1">
          <mxGeometry x="516" y="2695" width="20" height="30" as="geometry" />
        </mxCell>
        <mxCell id="rwRMCPvIfiqm_xGu82nB-224" value="" style="rounded=0;whiteSpace=wrap;html=1;fillStyle=hatch;comic=0;shadow=0;glass=0;" parent="1" vertex="1">
          <mxGeometry x="496" y="2695" width="20" height="30" as="geometry" />
        </mxCell>
        <mxCell id="rwRMCPvIfiqm_xGu82nB-225" value="" style="rounded=0;whiteSpace=wrap;html=1;fillStyle=hatch;comic=0;shadow=0;glass=0;" parent="1" vertex="1">
          <mxGeometry x="476" y="2695" width="20" height="30" as="geometry" />
        </mxCell>
        <mxCell id="rwRMCPvIfiqm_xGu82nB-226" value="" style="rounded=0;whiteSpace=wrap;html=1;fillStyle=hatch;comic=0;shadow=0;glass=0;" parent="1" vertex="1">
          <mxGeometry x="456" y="2695" width="20" height="30" as="geometry" />
        </mxCell>
        <mxCell id="rwRMCPvIfiqm_xGu82nB-227" value="" style="rounded=0;whiteSpace=wrap;html=1;fillStyle=hatch;comic=0;shadow=0;glass=0;" parent="1" vertex="1">
          <mxGeometry x="596" y="2695" width="20" height="30" as="geometry" />
        </mxCell>
        <mxCell id="rwRMCPvIfiqm_xGu82nB-228" value="" style="rounded=0;whiteSpace=wrap;html=1;fillStyle=hatch;comic=0;shadow=0;glass=0;" parent="1" vertex="1">
          <mxGeometry x="576" y="2695" width="20" height="30" as="geometry" />
        </mxCell>
        <mxCell id="rwRMCPvIfiqm_xGu82nB-229" value="" style="rounded=0;whiteSpace=wrap;html=1;fillStyle=hatch;comic=0;shadow=0;glass=0;" parent="1" vertex="1">
          <mxGeometry x="556" y="2695" width="20" height="30" as="geometry" />
        </mxCell>
        <mxCell id="rwRMCPvIfiqm_xGu82nB-230" value="" style="rounded=0;whiteSpace=wrap;html=1;fillStyle=hatch;comic=0;shadow=0;glass=0;" parent="1" vertex="1">
          <mxGeometry x="536" y="2695" width="20" height="30" as="geometry" />
        </mxCell>
        <mxCell id="rwRMCPvIfiqm_xGu82nB-231" value="" style="rounded=0;whiteSpace=wrap;html=1;fillStyle=hatch;comic=0;shadow=0;glass=0;" parent="1" vertex="1">
          <mxGeometry x="636" y="2695" width="20" height="30" as="geometry" />
        </mxCell>
        <mxCell id="rwRMCPvIfiqm_xGu82nB-232" value="" style="rounded=0;whiteSpace=wrap;html=1;fillStyle=hatch;comic=0;shadow=0;glass=0;" parent="1" vertex="1">
          <mxGeometry x="616" y="2695" width="20" height="30" as="geometry" />
        </mxCell>
        <mxCell id="rwRMCPvIfiqm_xGu82nB-233" value="" style="endArrow=oval;startArrow=oval;html=1;rounded=0;startFill=0;endFill=0;" parent="1" edge="1">
          <mxGeometry width="50" height="50" relative="1" as="geometry">
            <mxPoint x="136" y="2845" as="sourcePoint" />
            <mxPoint x="656" y="2845" as="targetPoint" />
          </mxGeometry>
        </mxCell>
        <mxCell id="rwRMCPvIfiqm_xGu82nB-234" value="&lt;font style=&quot;font-size: 20px;&quot;&gt;L=6.0m&lt;/font&gt;" style="text;html=1;align=center;verticalAlign=middle;whiteSpace=wrap;rounded=0;" parent="1" vertex="1">
          <mxGeometry x="341" y="2815" width="110" height="30" as="geometry" />
        </mxCell>
        <mxCell id="rwRMCPvIfiqm_xGu82nB-235" value="" style="triangle;whiteSpace=wrap;html=1;rotation=270;" parent="1" vertex="1">
          <mxGeometry x="641" y="2765" width="30" height="30" as="geometry" />
        </mxCell>
        <mxCell id="rwRMCPvIfiqm_xGu82nB-236" value="&lt;font style=&quot;font-size: 20px;&quot;&gt;w=50.2kN/m&lt;/font&gt;" style="text;html=1;align=center;verticalAlign=middle;whiteSpace=wrap;rounded=0;" parent="1" vertex="1">
          <mxGeometry x="330" y="2665" width="120" height="30" as="geometry" />
        </mxCell>
        <mxCell id="rwRMCPvIfiqm_xGu82nB-237" value="" style="rounded=0;whiteSpace=wrap;html=1;strokeColor=none;" parent="1" vertex="1">
          <mxGeometry x="-204" y="3020" width="1200" height="210" as="geometry" />
        </mxCell>
        <mxCell id="rwRMCPvIfiqm_xGu82nB-238" value="" style="rounded=0;whiteSpace=wrap;html=1;fillColor=#E6E6E6;" parent="1" vertex="1">
          <mxGeometry x="142" y="3115" width="520" height="20" as="geometry" />
        </mxCell>
        <mxCell id="rwRMCPvIfiqm_xGu82nB-239" value="" style="triangle;whiteSpace=wrap;html=1;rotation=270;" parent="1" vertex="1">
          <mxGeometry x="127" y="3135" width="30" height="30" as="geometry" />
        </mxCell>
        <mxCell id="rwRMCPvIfiqm_xGu82nB-240" value="" style="rounded=0;whiteSpace=wrap;html=1;fillStyle=hatch;comic=0;shadow=0;glass=0;" parent="1" vertex="1">
          <mxGeometry x="142" y="3065" width="20" height="30" as="geometry" />
        </mxCell>
        <mxCell id="rwRMCPvIfiqm_xGu82nB-241" value="" style="rounded=0;whiteSpace=wrap;html=1;fillStyle=hatch;comic=0;shadow=0;glass=0;" parent="1" vertex="1">
          <mxGeometry x="162" y="3065" width="20" height="30" as="geometry" />
        </mxCell>
        <mxCell id="rwRMCPvIfiqm_xGu82nB-242" value="" style="rounded=0;whiteSpace=wrap;html=1;fillStyle=hatch;comic=0;shadow=0;glass=0;" parent="1" vertex="1">
          <mxGeometry x="202" y="3065" width="20" height="30" as="geometry" />
        </mxCell>
        <mxCell id="rwRMCPvIfiqm_xGu82nB-243" value="" style="rounded=0;whiteSpace=wrap;html=1;fillStyle=hatch;comic=0;shadow=0;glass=0;" parent="1" vertex="1">
          <mxGeometry x="182" y="3065" width="20" height="30" as="geometry" />
        </mxCell>
        <mxCell id="rwRMCPvIfiqm_xGu82nB-244" value="" style="rounded=0;whiteSpace=wrap;html=1;fillStyle=hatch;comic=0;shadow=0;glass=0;" parent="1" vertex="1">
          <mxGeometry x="282" y="3065" width="20" height="30" as="geometry" />
        </mxCell>
        <mxCell id="rwRMCPvIfiqm_xGu82nB-245" value="" style="rounded=0;whiteSpace=wrap;html=1;fillStyle=hatch;comic=0;shadow=0;glass=0;" parent="1" vertex="1">
          <mxGeometry x="262" y="3065" width="20" height="30" as="geometry" />
        </mxCell>
        <mxCell id="rwRMCPvIfiqm_xGu82nB-246" value="" style="rounded=0;whiteSpace=wrap;html=1;fillStyle=hatch;comic=0;shadow=0;glass=0;" parent="1" vertex="1">
          <mxGeometry x="242" y="3065" width="20" height="30" as="geometry" />
        </mxCell>
        <mxCell id="rwRMCPvIfiqm_xGu82nB-247" value="" style="rounded=0;whiteSpace=wrap;html=1;fillStyle=hatch;comic=0;shadow=0;glass=0;" parent="1" vertex="1">
          <mxGeometry x="222" y="3065" width="20" height="30" as="geometry" />
        </mxCell>
        <mxCell id="rwRMCPvIfiqm_xGu82nB-248" value="" style="rounded=0;whiteSpace=wrap;html=1;fillStyle=hatch;comic=0;shadow=0;glass=0;" parent="1" vertex="1">
          <mxGeometry x="362" y="3065" width="20" height="30" as="geometry" />
        </mxCell>
        <mxCell id="rwRMCPvIfiqm_xGu82nB-249" value="" style="rounded=0;whiteSpace=wrap;html=1;fillStyle=hatch;comic=0;shadow=0;glass=0;" parent="1" vertex="1">
          <mxGeometry x="342" y="3065" width="20" height="30" as="geometry" />
        </mxCell>
        <mxCell id="rwRMCPvIfiqm_xGu82nB-250" value="" style="rounded=0;whiteSpace=wrap;html=1;fillStyle=hatch;comic=0;shadow=0;glass=0;" parent="1" vertex="1">
          <mxGeometry x="322" y="3065" width="20" height="30" as="geometry" />
        </mxCell>
        <mxCell id="rwRMCPvIfiqm_xGu82nB-251" value="" style="rounded=0;whiteSpace=wrap;html=1;fillStyle=hatch;comic=0;shadow=0;glass=0;" parent="1" vertex="1">
          <mxGeometry x="302" y="3065" width="20" height="30" as="geometry" />
        </mxCell>
        <mxCell id="rwRMCPvIfiqm_xGu82nB-252" value="" style="rounded=0;whiteSpace=wrap;html=1;fillStyle=hatch;comic=0;shadow=0;glass=0;" parent="1" vertex="1">
          <mxGeometry x="442" y="3065" width="20" height="30" as="geometry" />
        </mxCell>
        <mxCell id="rwRMCPvIfiqm_xGu82nB-253" value="" style="rounded=0;whiteSpace=wrap;html=1;fillStyle=hatch;comic=0;shadow=0;glass=0;" parent="1" vertex="1">
          <mxGeometry x="422" y="3065" width="20" height="30" as="geometry" />
        </mxCell>
        <mxCell id="rwRMCPvIfiqm_xGu82nB-254" value="" style="rounded=0;whiteSpace=wrap;html=1;fillStyle=hatch;comic=0;shadow=0;glass=0;" parent="1" vertex="1">
          <mxGeometry x="402" y="3065" width="20" height="30" as="geometry" />
        </mxCell>
        <mxCell id="rwRMCPvIfiqm_xGu82nB-255" value="" style="rounded=0;whiteSpace=wrap;html=1;fillStyle=hatch;comic=0;shadow=0;glass=0;" parent="1" vertex="1">
          <mxGeometry x="382" y="3065" width="20" height="30" as="geometry" />
        </mxCell>
        <mxCell id="rwRMCPvIfiqm_xGu82nB-256" value="" style="rounded=0;whiteSpace=wrap;html=1;fillStyle=hatch;comic=0;shadow=0;glass=0;" parent="1" vertex="1">
          <mxGeometry x="522" y="3065" width="20" height="30" as="geometry" />
        </mxCell>
        <mxCell id="rwRMCPvIfiqm_xGu82nB-257" value="" style="rounded=0;whiteSpace=wrap;html=1;fillStyle=hatch;comic=0;shadow=0;glass=0;" parent="1" vertex="1">
          <mxGeometry x="502" y="3065" width="20" height="30" as="geometry" />
        </mxCell>
        <mxCell id="rwRMCPvIfiqm_xGu82nB-258" value="" style="rounded=0;whiteSpace=wrap;html=1;fillStyle=hatch;comic=0;shadow=0;glass=0;" parent="1" vertex="1">
          <mxGeometry x="482" y="3065" width="20" height="30" as="geometry" />
        </mxCell>
        <mxCell id="rwRMCPvIfiqm_xGu82nB-259" value="" style="rounded=0;whiteSpace=wrap;html=1;fillStyle=hatch;comic=0;shadow=0;glass=0;" parent="1" vertex="1">
          <mxGeometry x="462" y="3065" width="20" height="30" as="geometry" />
        </mxCell>
        <mxCell id="rwRMCPvIfiqm_xGu82nB-260" value="" style="rounded=0;whiteSpace=wrap;html=1;fillStyle=hatch;comic=0;shadow=0;glass=0;" parent="1" vertex="1">
          <mxGeometry x="602" y="3065" width="20" height="30" as="geometry" />
        </mxCell>
        <mxCell id="rwRMCPvIfiqm_xGu82nB-261" value="" style="rounded=0;whiteSpace=wrap;html=1;fillStyle=hatch;comic=0;shadow=0;glass=0;" parent="1" vertex="1">
          <mxGeometry x="582" y="3065" width="20" height="30" as="geometry" />
        </mxCell>
        <mxCell id="rwRMCPvIfiqm_xGu82nB-262" value="" style="rounded=0;whiteSpace=wrap;html=1;fillStyle=hatch;comic=0;shadow=0;glass=0;" parent="1" vertex="1">
          <mxGeometry x="562" y="3065" width="20" height="30" as="geometry" />
        </mxCell>
        <mxCell id="rwRMCPvIfiqm_xGu82nB-263" value="" style="rounded=0;whiteSpace=wrap;html=1;fillStyle=hatch;comic=0;shadow=0;glass=0;" parent="1" vertex="1">
          <mxGeometry x="542" y="3065" width="20" height="30" as="geometry" />
        </mxCell>
        <mxCell id="rwRMCPvIfiqm_xGu82nB-264" value="" style="rounded=0;whiteSpace=wrap;html=1;fillStyle=hatch;comic=0;shadow=0;glass=0;" parent="1" vertex="1">
          <mxGeometry x="642" y="3065" width="20" height="30" as="geometry" />
        </mxCell>
        <mxCell id="rwRMCPvIfiqm_xGu82nB-265" value="" style="rounded=0;whiteSpace=wrap;html=1;fillStyle=hatch;comic=0;shadow=0;glass=0;" parent="1" vertex="1">
          <mxGeometry x="622" y="3065" width="20" height="30" as="geometry" />
        </mxCell>
        <mxCell id="rwRMCPvIfiqm_xGu82nB-266" value="" style="endArrow=oval;startArrow=oval;html=1;rounded=0;startFill=0;endFill=0;" parent="1" edge="1">
          <mxGeometry width="50" height="50" relative="1" as="geometry">
            <mxPoint x="142" y="3215" as="sourcePoint" />
            <mxPoint x="662" y="3215" as="targetPoint" />
          </mxGeometry>
        </mxCell>
        <mxCell id="rwRMCPvIfiqm_xGu82nB-267" value="&lt;font style=&quot;font-size: 20px;&quot;&gt;L=3.3m&lt;/font&gt;" style="text;html=1;align=center;verticalAlign=middle;whiteSpace=wrap;rounded=0;" parent="1" vertex="1">
          <mxGeometry x="347" y="3185" width="110" height="30" as="geometry" />
        </mxCell>
        <mxCell id="rwRMCPvIfiqm_xGu82nB-268" value="" style="triangle;whiteSpace=wrap;html=1;rotation=270;" parent="1" vertex="1">
          <mxGeometry x="647" y="3135" width="30" height="30" as="geometry" />
        </mxCell>
        <mxCell id="rwRMCPvIfiqm_xGu82nB-269" value="&lt;font style=&quot;font-size: 20px;&quot;&gt;w=28.0kN/m&lt;/font&gt;" style="text;html=1;align=center;verticalAlign=middle;whiteSpace=wrap;rounded=0;" parent="1" vertex="1">
          <mxGeometry x="336" y="3035" width="120" height="30" as="geometry" />
        </mxCell>
        <mxCell id="rwRMCPvIfiqm_xGu82nB-270" value="" style="rounded=0;whiteSpace=wrap;html=1;strokeColor=none;" parent="1" vertex="1">
          <mxGeometry x="-199" y="3360" width="1200" height="210" as="geometry" />
        </mxCell>
        <mxCell id="rwRMCPvIfiqm_xGu82nB-271" value="" style="rounded=0;whiteSpace=wrap;html=1;fillColor=#E6E6E6;" parent="1" vertex="1">
          <mxGeometry x="147" y="3455" width="520" height="20" as="geometry" />
        </mxCell>
        <mxCell id="rwRMCPvIfiqm_xGu82nB-272" value="" style="triangle;whiteSpace=wrap;html=1;rotation=270;" parent="1" vertex="1">
          <mxGeometry x="132" y="3475" width="30" height="30" as="geometry" />
        </mxCell>
        <mxCell id="rwRMCPvIfiqm_xGu82nB-273" value="" style="rounded=0;whiteSpace=wrap;html=1;fillStyle=hatch;comic=0;shadow=0;glass=0;" parent="1" vertex="1">
          <mxGeometry x="147" y="3405" width="20" height="30" as="geometry" />
        </mxCell>
        <mxCell id="rwRMCPvIfiqm_xGu82nB-274" value="" style="rounded=0;whiteSpace=wrap;html=1;fillStyle=hatch;comic=0;shadow=0;glass=0;" parent="1" vertex="1">
          <mxGeometry x="167" y="3405" width="20" height="30" as="geometry" />
        </mxCell>
        <mxCell id="rwRMCPvIfiqm_xGu82nB-275" value="" style="rounded=0;whiteSpace=wrap;html=1;fillStyle=hatch;comic=0;shadow=0;glass=0;" parent="1" vertex="1">
          <mxGeometry x="207" y="3405" width="20" height="30" as="geometry" />
        </mxCell>
        <mxCell id="rwRMCPvIfiqm_xGu82nB-276" value="" style="rounded=0;whiteSpace=wrap;html=1;fillStyle=hatch;comic=0;shadow=0;glass=0;" parent="1" vertex="1">
          <mxGeometry x="187" y="3405" width="20" height="30" as="geometry" />
        </mxCell>
        <mxCell id="rwRMCPvIfiqm_xGu82nB-277" value="" style="rounded=0;whiteSpace=wrap;html=1;fillStyle=hatch;comic=0;shadow=0;glass=0;" parent="1" vertex="1">
          <mxGeometry x="287" y="3405" width="20" height="30" as="geometry" />
        </mxCell>
        <mxCell id="rwRMCPvIfiqm_xGu82nB-278" value="" style="rounded=0;whiteSpace=wrap;html=1;fillStyle=hatch;comic=0;shadow=0;glass=0;" parent="1" vertex="1">
          <mxGeometry x="267" y="3405" width="20" height="30" as="geometry" />
        </mxCell>
        <mxCell id="rwRMCPvIfiqm_xGu82nB-279" value="" style="rounded=0;whiteSpace=wrap;html=1;fillStyle=hatch;comic=0;shadow=0;glass=0;" parent="1" vertex="1">
          <mxGeometry x="247" y="3405" width="20" height="30" as="geometry" />
        </mxCell>
        <mxCell id="rwRMCPvIfiqm_xGu82nB-280" value="" style="rounded=0;whiteSpace=wrap;html=1;fillStyle=hatch;comic=0;shadow=0;glass=0;" parent="1" vertex="1">
          <mxGeometry x="227" y="3405" width="20" height="30" as="geometry" />
        </mxCell>
        <mxCell id="rwRMCPvIfiqm_xGu82nB-281" value="" style="rounded=0;whiteSpace=wrap;html=1;fillStyle=hatch;comic=0;shadow=0;glass=0;" parent="1" vertex="1">
          <mxGeometry x="367" y="3405" width="20" height="30" as="geometry" />
        </mxCell>
        <mxCell id="rwRMCPvIfiqm_xGu82nB-282" value="" style="rounded=0;whiteSpace=wrap;html=1;fillStyle=hatch;comic=0;shadow=0;glass=0;" parent="1" vertex="1">
          <mxGeometry x="347" y="3405" width="20" height="30" as="geometry" />
        </mxCell>
        <mxCell id="rwRMCPvIfiqm_xGu82nB-283" value="" style="rounded=0;whiteSpace=wrap;html=1;fillStyle=hatch;comic=0;shadow=0;glass=0;" parent="1" vertex="1">
          <mxGeometry x="327" y="3405" width="20" height="30" as="geometry" />
        </mxCell>
        <mxCell id="rwRMCPvIfiqm_xGu82nB-284" value="" style="rounded=0;whiteSpace=wrap;html=1;fillStyle=hatch;comic=0;shadow=0;glass=0;" parent="1" vertex="1">
          <mxGeometry x="307" y="3405" width="20" height="30" as="geometry" />
        </mxCell>
        <mxCell id="rwRMCPvIfiqm_xGu82nB-285" value="" style="rounded=0;whiteSpace=wrap;html=1;fillStyle=hatch;comic=0;shadow=0;glass=0;" parent="1" vertex="1">
          <mxGeometry x="447" y="3405" width="20" height="30" as="geometry" />
        </mxCell>
        <mxCell id="rwRMCPvIfiqm_xGu82nB-286" value="" style="rounded=0;whiteSpace=wrap;html=1;fillStyle=hatch;comic=0;shadow=0;glass=0;" parent="1" vertex="1">
          <mxGeometry x="427" y="3405" width="20" height="30" as="geometry" />
        </mxCell>
        <mxCell id="rwRMCPvIfiqm_xGu82nB-287" value="" style="rounded=0;whiteSpace=wrap;html=1;fillStyle=hatch;comic=0;shadow=0;glass=0;" parent="1" vertex="1">
          <mxGeometry x="407" y="3405" width="20" height="30" as="geometry" />
        </mxCell>
        <mxCell id="rwRMCPvIfiqm_xGu82nB-288" value="" style="rounded=0;whiteSpace=wrap;html=1;fillStyle=hatch;comic=0;shadow=0;glass=0;" parent="1" vertex="1">
          <mxGeometry x="387" y="3405" width="20" height="30" as="geometry" />
        </mxCell>
        <mxCell id="rwRMCPvIfiqm_xGu82nB-289" value="" style="rounded=0;whiteSpace=wrap;html=1;fillStyle=hatch;comic=0;shadow=0;glass=0;" parent="1" vertex="1">
          <mxGeometry x="527" y="3405" width="20" height="30" as="geometry" />
        </mxCell>
        <mxCell id="rwRMCPvIfiqm_xGu82nB-290" value="" style="rounded=0;whiteSpace=wrap;html=1;fillStyle=hatch;comic=0;shadow=0;glass=0;" parent="1" vertex="1">
          <mxGeometry x="507" y="3405" width="20" height="30" as="geometry" />
        </mxCell>
        <mxCell id="rwRMCPvIfiqm_xGu82nB-291" value="" style="rounded=0;whiteSpace=wrap;html=1;fillStyle=hatch;comic=0;shadow=0;glass=0;" parent="1" vertex="1">
          <mxGeometry x="487" y="3405" width="20" height="30" as="geometry" />
        </mxCell>
        <mxCell id="rwRMCPvIfiqm_xGu82nB-292" value="" style="rounded=0;whiteSpace=wrap;html=1;fillStyle=hatch;comic=0;shadow=0;glass=0;" parent="1" vertex="1">
          <mxGeometry x="467" y="3405" width="20" height="30" as="geometry" />
        </mxCell>
        <mxCell id="rwRMCPvIfiqm_xGu82nB-293" value="" style="rounded=0;whiteSpace=wrap;html=1;fillStyle=hatch;comic=0;shadow=0;glass=0;" parent="1" vertex="1">
          <mxGeometry x="607" y="3405" width="20" height="30" as="geometry" />
        </mxCell>
        <mxCell id="rwRMCPvIfiqm_xGu82nB-294" value="" style="rounded=0;whiteSpace=wrap;html=1;fillStyle=hatch;comic=0;shadow=0;glass=0;" parent="1" vertex="1">
          <mxGeometry x="587" y="3405" width="20" height="30" as="geometry" />
        </mxCell>
        <mxCell id="rwRMCPvIfiqm_xGu82nB-295" value="" style="rounded=0;whiteSpace=wrap;html=1;fillStyle=hatch;comic=0;shadow=0;glass=0;" parent="1" vertex="1">
          <mxGeometry x="567" y="3405" width="20" height="30" as="geometry" />
        </mxCell>
        <mxCell id="rwRMCPvIfiqm_xGu82nB-296" value="" style="rounded=0;whiteSpace=wrap;html=1;fillStyle=hatch;comic=0;shadow=0;glass=0;" parent="1" vertex="1">
          <mxGeometry x="547" y="3405" width="20" height="30" as="geometry" />
        </mxCell>
        <mxCell id="rwRMCPvIfiqm_xGu82nB-297" value="" style="rounded=0;whiteSpace=wrap;html=1;fillStyle=hatch;comic=0;shadow=0;glass=0;" parent="1" vertex="1">
          <mxGeometry x="647" y="3405" width="20" height="30" as="geometry" />
        </mxCell>
        <mxCell id="rwRMCPvIfiqm_xGu82nB-298" value="" style="rounded=0;whiteSpace=wrap;html=1;fillStyle=hatch;comic=0;shadow=0;glass=0;" parent="1" vertex="1">
          <mxGeometry x="627" y="3405" width="20" height="30" as="geometry" />
        </mxCell>
        <mxCell id="rwRMCPvIfiqm_xGu82nB-299" value="" style="endArrow=oval;startArrow=oval;html=1;rounded=0;startFill=0;endFill=0;" parent="1" edge="1">
          <mxGeometry width="50" height="50" relative="1" as="geometry">
            <mxPoint x="147" y="3555" as="sourcePoint" />
            <mxPoint x="667" y="3555" as="targetPoint" />
          </mxGeometry>
        </mxCell>
        <mxCell id="rwRMCPvIfiqm_xGu82nB-300" value="&lt;font style=&quot;font-size: 20px;&quot;&gt;L=4.3m&lt;/font&gt;" style="text;html=1;align=center;verticalAlign=middle;whiteSpace=wrap;rounded=0;" parent="1" vertex="1">
          <mxGeometry x="352" y="3525" width="110" height="30" as="geometry" />
        </mxCell>
        <mxCell id="rwRMCPvIfiqm_xGu82nB-301" value="" style="triangle;whiteSpace=wrap;html=1;rotation=270;" parent="1" vertex="1">
          <mxGeometry x="652" y="3475" width="30" height="30" as="geometry" />
        </mxCell>
        <mxCell id="rwRMCPvIfiqm_xGu82nB-302" value="&lt;font style=&quot;font-size: 20px;&quot;&gt;w=39.0kN/m&lt;/font&gt;" style="text;html=1;align=center;verticalAlign=middle;whiteSpace=wrap;rounded=0;" parent="1" vertex="1">
          <mxGeometry x="341" y="3375" width="120" height="30" as="geometry" />
        </mxCell>
        <mxCell id="rwRMCPvIfiqm_xGu82nB-303" value="" style="rounded=0;whiteSpace=wrap;html=1;strokeColor=none;" parent="1" vertex="1">
          <mxGeometry x="-195" y="3720" width="1200" height="210" as="geometry" />
        </mxCell>
        <mxCell id="rwRMCPvIfiqm_xGu82nB-304" value="" style="rounded=0;whiteSpace=wrap;html=1;fillColor=#E6E6E6;" parent="1" vertex="1">
          <mxGeometry x="151" y="3815" width="520" height="20" as="geometry" />
        </mxCell>
        <mxCell id="rwRMCPvIfiqm_xGu82nB-305" value="" style="triangle;whiteSpace=wrap;html=1;rotation=270;" parent="1" vertex="1">
          <mxGeometry x="136" y="3835" width="30" height="30" as="geometry" />
        </mxCell>
        <mxCell id="rwRMCPvIfiqm_xGu82nB-306" value="" style="rounded=0;whiteSpace=wrap;html=1;fillStyle=hatch;comic=0;shadow=0;glass=0;" parent="1" vertex="1">
          <mxGeometry x="151" y="3765" width="20" height="30" as="geometry" />
        </mxCell>
        <mxCell id="rwRMCPvIfiqm_xGu82nB-307" value="" style="rounded=0;whiteSpace=wrap;html=1;fillStyle=hatch;comic=0;shadow=0;glass=0;" parent="1" vertex="1">
          <mxGeometry x="171" y="3765" width="20" height="30" as="geometry" />
        </mxCell>
        <mxCell id="rwRMCPvIfiqm_xGu82nB-308" value="" style="rounded=0;whiteSpace=wrap;html=1;fillStyle=hatch;comic=0;shadow=0;glass=0;" parent="1" vertex="1">
          <mxGeometry x="211" y="3765" width="20" height="30" as="geometry" />
        </mxCell>
        <mxCell id="rwRMCPvIfiqm_xGu82nB-309" value="" style="rounded=0;whiteSpace=wrap;html=1;fillStyle=hatch;comic=0;shadow=0;glass=0;" parent="1" vertex="1">
          <mxGeometry x="191" y="3765" width="20" height="30" as="geometry" />
        </mxCell>
        <mxCell id="rwRMCPvIfiqm_xGu82nB-310" value="" style="rounded=0;whiteSpace=wrap;html=1;fillStyle=hatch;comic=0;shadow=0;glass=0;" parent="1" vertex="1">
          <mxGeometry x="291" y="3765" width="20" height="30" as="geometry" />
        </mxCell>
        <mxCell id="rwRMCPvIfiqm_xGu82nB-311" value="" style="rounded=0;whiteSpace=wrap;html=1;fillStyle=hatch;comic=0;shadow=0;glass=0;" parent="1" vertex="1">
          <mxGeometry x="271" y="3765" width="20" height="30" as="geometry" />
        </mxCell>
        <mxCell id="rwRMCPvIfiqm_xGu82nB-312" value="" style="rounded=0;whiteSpace=wrap;html=1;fillStyle=hatch;comic=0;shadow=0;glass=0;" parent="1" vertex="1">
          <mxGeometry x="251" y="3765" width="20" height="30" as="geometry" />
        </mxCell>
        <mxCell id="rwRMCPvIfiqm_xGu82nB-313" value="" style="rounded=0;whiteSpace=wrap;html=1;fillStyle=hatch;comic=0;shadow=0;glass=0;" parent="1" vertex="1">
          <mxGeometry x="231" y="3765" width="20" height="30" as="geometry" />
        </mxCell>
        <mxCell id="rwRMCPvIfiqm_xGu82nB-314" value="" style="rounded=0;whiteSpace=wrap;html=1;fillStyle=hatch;comic=0;shadow=0;glass=0;" parent="1" vertex="1">
          <mxGeometry x="371" y="3765" width="20" height="30" as="geometry" />
        </mxCell>
        <mxCell id="rwRMCPvIfiqm_xGu82nB-315" value="" style="rounded=0;whiteSpace=wrap;html=1;fillStyle=hatch;comic=0;shadow=0;glass=0;" parent="1" vertex="1">
          <mxGeometry x="351" y="3765" width="20" height="30" as="geometry" />
        </mxCell>
        <mxCell id="rwRMCPvIfiqm_xGu82nB-316" value="" style="rounded=0;whiteSpace=wrap;html=1;fillStyle=hatch;comic=0;shadow=0;glass=0;" parent="1" vertex="1">
          <mxGeometry x="331" y="3765" width="20" height="30" as="geometry" />
        </mxCell>
        <mxCell id="rwRMCPvIfiqm_xGu82nB-317" value="" style="rounded=0;whiteSpace=wrap;html=1;fillStyle=hatch;comic=0;shadow=0;glass=0;" parent="1" vertex="1">
          <mxGeometry x="311" y="3765" width="20" height="30" as="geometry" />
        </mxCell>
        <mxCell id="rwRMCPvIfiqm_xGu82nB-318" value="" style="rounded=0;whiteSpace=wrap;html=1;fillStyle=hatch;comic=0;shadow=0;glass=0;" parent="1" vertex="1">
          <mxGeometry x="451" y="3765" width="20" height="30" as="geometry" />
        </mxCell>
        <mxCell id="rwRMCPvIfiqm_xGu82nB-319" value="" style="rounded=0;whiteSpace=wrap;html=1;fillStyle=hatch;comic=0;shadow=0;glass=0;" parent="1" vertex="1">
          <mxGeometry x="431" y="3765" width="20" height="30" as="geometry" />
        </mxCell>
        <mxCell id="rwRMCPvIfiqm_xGu82nB-320" value="" style="rounded=0;whiteSpace=wrap;html=1;fillStyle=hatch;comic=0;shadow=0;glass=0;" parent="1" vertex="1">
          <mxGeometry x="411" y="3765" width="20" height="30" as="geometry" />
        </mxCell>
        <mxCell id="rwRMCPvIfiqm_xGu82nB-321" value="" style="rounded=0;whiteSpace=wrap;html=1;fillStyle=hatch;comic=0;shadow=0;glass=0;" parent="1" vertex="1">
          <mxGeometry x="391" y="3765" width="20" height="30" as="geometry" />
        </mxCell>
        <mxCell id="rwRMCPvIfiqm_xGu82nB-322" value="" style="rounded=0;whiteSpace=wrap;html=1;fillStyle=hatch;comic=0;shadow=0;glass=0;" parent="1" vertex="1">
          <mxGeometry x="531" y="3765" width="20" height="30" as="geometry" />
        </mxCell>
        <mxCell id="rwRMCPvIfiqm_xGu82nB-323" value="" style="rounded=0;whiteSpace=wrap;html=1;fillStyle=hatch;comic=0;shadow=0;glass=0;" parent="1" vertex="1">
          <mxGeometry x="511" y="3765" width="20" height="30" as="geometry" />
        </mxCell>
        <mxCell id="rwRMCPvIfiqm_xGu82nB-324" value="" style="rounded=0;whiteSpace=wrap;html=1;fillStyle=hatch;comic=0;shadow=0;glass=0;" parent="1" vertex="1">
          <mxGeometry x="491" y="3765" width="20" height="30" as="geometry" />
        </mxCell>
        <mxCell id="rwRMCPvIfiqm_xGu82nB-325" value="" style="rounded=0;whiteSpace=wrap;html=1;fillStyle=hatch;comic=0;shadow=0;glass=0;" parent="1" vertex="1">
          <mxGeometry x="471" y="3765" width="20" height="30" as="geometry" />
        </mxCell>
        <mxCell id="rwRMCPvIfiqm_xGu82nB-326" value="" style="rounded=0;whiteSpace=wrap;html=1;fillStyle=hatch;comic=0;shadow=0;glass=0;" parent="1" vertex="1">
          <mxGeometry x="611" y="3765" width="20" height="30" as="geometry" />
        </mxCell>
        <mxCell id="rwRMCPvIfiqm_xGu82nB-327" value="" style="rounded=0;whiteSpace=wrap;html=1;fillStyle=hatch;comic=0;shadow=0;glass=0;" parent="1" vertex="1">
          <mxGeometry x="591" y="3765" width="20" height="30" as="geometry" />
        </mxCell>
        <mxCell id="rwRMCPvIfiqm_xGu82nB-328" value="" style="rounded=0;whiteSpace=wrap;html=1;fillStyle=hatch;comic=0;shadow=0;glass=0;" parent="1" vertex="1">
          <mxGeometry x="571" y="3765" width="20" height="30" as="geometry" />
        </mxCell>
        <mxCell id="rwRMCPvIfiqm_xGu82nB-329" value="" style="rounded=0;whiteSpace=wrap;html=1;fillStyle=hatch;comic=0;shadow=0;glass=0;" parent="1" vertex="1">
          <mxGeometry x="551" y="3765" width="20" height="30" as="geometry" />
        </mxCell>
        <mxCell id="rwRMCPvIfiqm_xGu82nB-330" value="" style="rounded=0;whiteSpace=wrap;html=1;fillStyle=hatch;comic=0;shadow=0;glass=0;" parent="1" vertex="1">
          <mxGeometry x="651" y="3765" width="20" height="30" as="geometry" />
        </mxCell>
        <mxCell id="rwRMCPvIfiqm_xGu82nB-331" value="" style="rounded=0;whiteSpace=wrap;html=1;fillStyle=hatch;comic=0;shadow=0;glass=0;" parent="1" vertex="1">
          <mxGeometry x="631" y="3765" width="20" height="30" as="geometry" />
        </mxCell>
        <mxCell id="rwRMCPvIfiqm_xGu82nB-332" value="" style="endArrow=oval;startArrow=oval;html=1;rounded=0;startFill=0;endFill=0;" parent="1" edge="1">
          <mxGeometry width="50" height="50" relative="1" as="geometry">
            <mxPoint x="151" y="3915" as="sourcePoint" />
            <mxPoint x="671" y="3915" as="targetPoint" />
          </mxGeometry>
        </mxCell>
        <mxCell id="rwRMCPvIfiqm_xGu82nB-333" value="&lt;font style=&quot;font-size: 20px;&quot;&gt;L=2.7m&lt;/font&gt;" style="text;html=1;align=center;verticalAlign=middle;whiteSpace=wrap;rounded=0;" parent="1" vertex="1">
          <mxGeometry x="356" y="3885" width="110" height="30" as="geometry" />
        </mxCell>
        <mxCell id="rwRMCPvIfiqm_xGu82nB-334" value="" style="triangle;whiteSpace=wrap;html=1;rotation=270;" parent="1" vertex="1">
          <mxGeometry x="656" y="3835" width="30" height="30" as="geometry" />
        </mxCell>
        <mxCell id="rwRMCPvIfiqm_xGu82nB-335" value="&lt;font style=&quot;font-size: 20px;&quot;&gt;w=88.0kN/m&lt;/font&gt;" style="text;html=1;align=center;verticalAlign=middle;whiteSpace=wrap;rounded=0;" parent="1" vertex="1">
          <mxGeometry x="345" y="3735" width="120" height="30" as="geometry" />
        </mxCell>
        <mxCell id="rwRMCPvIfiqm_xGu82nB-336" value="" style="rounded=0;whiteSpace=wrap;html=1;strokeColor=none;" parent="1" vertex="1">
          <mxGeometry x="-235" y="4140" width="1200" height="210" as="geometry" />
        </mxCell>
        <mxCell id="rwRMCPvIfiqm_xGu82nB-337" value="" style="rounded=0;whiteSpace=wrap;html=1;fillColor=#E6E6E6;" parent="1" vertex="1">
          <mxGeometry x="111" y="4235" width="520" height="20" as="geometry" />
        </mxCell>
        <mxCell id="rwRMCPvIfiqm_xGu82nB-338" value="" style="triangle;whiteSpace=wrap;html=1;rotation=270;" parent="1" vertex="1">
          <mxGeometry x="96" y="4255" width="30" height="30" as="geometry" />
        </mxCell>
        <mxCell id="rwRMCPvIfiqm_xGu82nB-339" value="" style="rounded=0;whiteSpace=wrap;html=1;fillStyle=hatch;comic=0;shadow=0;glass=0;" parent="1" vertex="1">
          <mxGeometry x="111" y="4185" width="20" height="30" as="geometry" />
        </mxCell>
        <mxCell id="rwRMCPvIfiqm_xGu82nB-340" value="" style="rounded=0;whiteSpace=wrap;html=1;fillStyle=hatch;comic=0;shadow=0;glass=0;" parent="1" vertex="1">
          <mxGeometry x="131" y="4185" width="20" height="30" as="geometry" />
        </mxCell>
        <mxCell id="rwRMCPvIfiqm_xGu82nB-341" value="" style="rounded=0;whiteSpace=wrap;html=1;fillStyle=hatch;comic=0;shadow=0;glass=0;" parent="1" vertex="1">
          <mxGeometry x="171" y="4185" width="20" height="30" as="geometry" />
        </mxCell>
        <mxCell id="rwRMCPvIfiqm_xGu82nB-342" value="" style="rounded=0;whiteSpace=wrap;html=1;fillStyle=hatch;comic=0;shadow=0;glass=0;" parent="1" vertex="1">
          <mxGeometry x="151" y="4185" width="20" height="30" as="geometry" />
        </mxCell>
        <mxCell id="rwRMCPvIfiqm_xGu82nB-343" value="" style="rounded=0;whiteSpace=wrap;html=1;fillStyle=hatch;comic=0;shadow=0;glass=0;" parent="1" vertex="1">
          <mxGeometry x="251" y="4185" width="20" height="30" as="geometry" />
        </mxCell>
        <mxCell id="rwRMCPvIfiqm_xGu82nB-344" value="" style="rounded=0;whiteSpace=wrap;html=1;fillStyle=hatch;comic=0;shadow=0;glass=0;" parent="1" vertex="1">
          <mxGeometry x="231" y="4185" width="20" height="30" as="geometry" />
        </mxCell>
        <mxCell id="rwRMCPvIfiqm_xGu82nB-345" value="" style="rounded=0;whiteSpace=wrap;html=1;fillStyle=hatch;comic=0;shadow=0;glass=0;" parent="1" vertex="1">
          <mxGeometry x="211" y="4185" width="20" height="30" as="geometry" />
        </mxCell>
        <mxCell id="rwRMCPvIfiqm_xGu82nB-346" value="" style="rounded=0;whiteSpace=wrap;html=1;fillStyle=hatch;comic=0;shadow=0;glass=0;" parent="1" vertex="1">
          <mxGeometry x="191" y="4185" width="20" height="30" as="geometry" />
        </mxCell>
        <mxCell id="rwRMCPvIfiqm_xGu82nB-347" value="" style="rounded=0;whiteSpace=wrap;html=1;fillStyle=hatch;comic=0;shadow=0;glass=0;" parent="1" vertex="1">
          <mxGeometry x="331" y="4185" width="20" height="30" as="geometry" />
        </mxCell>
        <mxCell id="rwRMCPvIfiqm_xGu82nB-348" value="" style="rounded=0;whiteSpace=wrap;html=1;fillStyle=hatch;comic=0;shadow=0;glass=0;" parent="1" vertex="1">
          <mxGeometry x="311" y="4185" width="20" height="30" as="geometry" />
        </mxCell>
        <mxCell id="rwRMCPvIfiqm_xGu82nB-349" value="" style="rounded=0;whiteSpace=wrap;html=1;fillStyle=hatch;comic=0;shadow=0;glass=0;" parent="1" vertex="1">
          <mxGeometry x="291" y="4185" width="20" height="30" as="geometry" />
        </mxCell>
        <mxCell id="rwRMCPvIfiqm_xGu82nB-350" value="" style="rounded=0;whiteSpace=wrap;html=1;fillStyle=hatch;comic=0;shadow=0;glass=0;" parent="1" vertex="1">
          <mxGeometry x="271" y="4185" width="20" height="30" as="geometry" />
        </mxCell>
        <mxCell id="rwRMCPvIfiqm_xGu82nB-351" value="" style="rounded=0;whiteSpace=wrap;html=1;fillStyle=hatch;comic=0;shadow=0;glass=0;" parent="1" vertex="1">
          <mxGeometry x="411" y="4185" width="20" height="30" as="geometry" />
        </mxCell>
        <mxCell id="rwRMCPvIfiqm_xGu82nB-352" value="" style="rounded=0;whiteSpace=wrap;html=1;fillStyle=hatch;comic=0;shadow=0;glass=0;" parent="1" vertex="1">
          <mxGeometry x="391" y="4185" width="20" height="30" as="geometry" />
        </mxCell>
        <mxCell id="rwRMCPvIfiqm_xGu82nB-353" value="" style="rounded=0;whiteSpace=wrap;html=1;fillStyle=hatch;comic=0;shadow=0;glass=0;" parent="1" vertex="1">
          <mxGeometry x="371" y="4185" width="20" height="30" as="geometry" />
        </mxCell>
        <mxCell id="rwRMCPvIfiqm_xGu82nB-354" value="" style="rounded=0;whiteSpace=wrap;html=1;fillStyle=hatch;comic=0;shadow=0;glass=0;" parent="1" vertex="1">
          <mxGeometry x="351" y="4185" width="20" height="30" as="geometry" />
        </mxCell>
        <mxCell id="rwRMCPvIfiqm_xGu82nB-355" value="" style="rounded=0;whiteSpace=wrap;html=1;fillStyle=hatch;comic=0;shadow=0;glass=0;" parent="1" vertex="1">
          <mxGeometry x="491" y="4185" width="20" height="30" as="geometry" />
        </mxCell>
        <mxCell id="rwRMCPvIfiqm_xGu82nB-356" value="" style="rounded=0;whiteSpace=wrap;html=1;fillStyle=hatch;comic=0;shadow=0;glass=0;" parent="1" vertex="1">
          <mxGeometry x="471" y="4185" width="20" height="30" as="geometry" />
        </mxCell>
        <mxCell id="rwRMCPvIfiqm_xGu82nB-357" value="" style="rounded=0;whiteSpace=wrap;html=1;fillStyle=hatch;comic=0;shadow=0;glass=0;" parent="1" vertex="1">
          <mxGeometry x="451" y="4185" width="20" height="30" as="geometry" />
        </mxCell>
        <mxCell id="rwRMCPvIfiqm_xGu82nB-358" value="" style="rounded=0;whiteSpace=wrap;html=1;fillStyle=hatch;comic=0;shadow=0;glass=0;" parent="1" vertex="1">
          <mxGeometry x="431" y="4185" width="20" height="30" as="geometry" />
        </mxCell>
        <mxCell id="rwRMCPvIfiqm_xGu82nB-359" value="" style="rounded=0;whiteSpace=wrap;html=1;fillStyle=hatch;comic=0;shadow=0;glass=0;" parent="1" vertex="1">
          <mxGeometry x="571" y="4185" width="20" height="30" as="geometry" />
        </mxCell>
        <mxCell id="rwRMCPvIfiqm_xGu82nB-360" value="" style="rounded=0;whiteSpace=wrap;html=1;fillStyle=hatch;comic=0;shadow=0;glass=0;" parent="1" vertex="1">
          <mxGeometry x="551" y="4185" width="20" height="30" as="geometry" />
        </mxCell>
        <mxCell id="rwRMCPvIfiqm_xGu82nB-361" value="" style="rounded=0;whiteSpace=wrap;html=1;fillStyle=hatch;comic=0;shadow=0;glass=0;" parent="1" vertex="1">
          <mxGeometry x="531" y="4185" width="20" height="30" as="geometry" />
        </mxCell>
        <mxCell id="rwRMCPvIfiqm_xGu82nB-362" value="" style="rounded=0;whiteSpace=wrap;html=1;fillStyle=hatch;comic=0;shadow=0;glass=0;" parent="1" vertex="1">
          <mxGeometry x="511" y="4185" width="20" height="30" as="geometry" />
        </mxCell>
        <mxCell id="rwRMCPvIfiqm_xGu82nB-363" value="" style="rounded=0;whiteSpace=wrap;html=1;fillStyle=hatch;comic=0;shadow=0;glass=0;" parent="1" vertex="1">
          <mxGeometry x="611" y="4185" width="20" height="30" as="geometry" />
        </mxCell>
        <mxCell id="rwRMCPvIfiqm_xGu82nB-364" value="" style="rounded=0;whiteSpace=wrap;html=1;fillStyle=hatch;comic=0;shadow=0;glass=0;" parent="1" vertex="1">
          <mxGeometry x="591" y="4185" width="20" height="30" as="geometry" />
        </mxCell>
        <mxCell id="rwRMCPvIfiqm_xGu82nB-365" value="" style="endArrow=oval;startArrow=oval;html=1;rounded=0;startFill=0;endFill=0;" parent="1" edge="1">
          <mxGeometry width="50" height="50" relative="1" as="geometry">
            <mxPoint x="111" y="4335" as="sourcePoint" />
            <mxPoint x="631" y="4335" as="targetPoint" />
          </mxGeometry>
        </mxCell>
        <mxCell id="rwRMCPvIfiqm_xGu82nB-366" value="&lt;font style=&quot;font-size: 20px;&quot;&gt;L=5.575m&lt;/font&gt;" style="text;html=1;align=center;verticalAlign=middle;whiteSpace=wrap;rounded=0;" parent="1" vertex="1">
          <mxGeometry x="316" y="4305" width="110" height="30" as="geometry" />
        </mxCell>
        <mxCell id="rwRMCPvIfiqm_xGu82nB-367" value="" style="triangle;whiteSpace=wrap;html=1;rotation=270;" parent="1" vertex="1">
          <mxGeometry x="616" y="4255" width="30" height="30" as="geometry" />
        </mxCell>
        <mxCell id="rwRMCPvIfiqm_xGu82nB-368" value="&lt;font style=&quot;font-size: 20px;&quot;&gt;w=165.0kN/m&lt;/font&gt;" style="text;html=1;align=center;verticalAlign=middle;whiteSpace=wrap;rounded=0;" parent="1" vertex="1">
          <mxGeometry x="305" y="4155" width="120" height="30" as="geometry" />
        </mxCell>
        <mxCell id="rwRMCPvIfiqm_xGu82nB-369" value="" style="rounded=0;whiteSpace=wrap;html=1;strokeColor=none;" parent="1" vertex="1">
          <mxGeometry x="-234" y="4580" width="1200" height="210" as="geometry" />
        </mxCell>
        <mxCell id="rwRMCPvIfiqm_xGu82nB-370" value="" style="rounded=0;whiteSpace=wrap;html=1;fillColor=#E6E6E6;" parent="1" vertex="1">
          <mxGeometry x="112" y="4675" width="520" height="20" as="geometry" />
        </mxCell>
        <mxCell id="rwRMCPvIfiqm_xGu82nB-371" value="" style="triangle;whiteSpace=wrap;html=1;rotation=270;" parent="1" vertex="1">
          <mxGeometry x="97" y="4695" width="30" height="30" as="geometry" />
        </mxCell>
        <mxCell id="rwRMCPvIfiqm_xGu82nB-372" value="" style="rounded=0;whiteSpace=wrap;html=1;fillStyle=hatch;comic=0;shadow=0;glass=0;" parent="1" vertex="1">
          <mxGeometry x="112" y="4625" width="20" height="30" as="geometry" />
        </mxCell>
        <mxCell id="rwRMCPvIfiqm_xGu82nB-373" value="" style="rounded=0;whiteSpace=wrap;html=1;fillStyle=hatch;comic=0;shadow=0;glass=0;" parent="1" vertex="1">
          <mxGeometry x="132" y="4625" width="20" height="30" as="geometry" />
        </mxCell>
        <mxCell id="rwRMCPvIfiqm_xGu82nB-374" value="" style="rounded=0;whiteSpace=wrap;html=1;fillStyle=hatch;comic=0;shadow=0;glass=0;" parent="1" vertex="1">
          <mxGeometry x="172" y="4625" width="20" height="30" as="geometry" />
        </mxCell>
        <mxCell id="rwRMCPvIfiqm_xGu82nB-375" value="" style="rounded=0;whiteSpace=wrap;html=1;fillStyle=hatch;comic=0;shadow=0;glass=0;" parent="1" vertex="1">
          <mxGeometry x="152" y="4625" width="20" height="30" as="geometry" />
        </mxCell>
        <mxCell id="rwRMCPvIfiqm_xGu82nB-376" value="" style="rounded=0;whiteSpace=wrap;html=1;fillStyle=hatch;comic=0;shadow=0;glass=0;" parent="1" vertex="1">
          <mxGeometry x="252" y="4625" width="20" height="30" as="geometry" />
        </mxCell>
        <mxCell id="rwRMCPvIfiqm_xGu82nB-377" value="" style="rounded=0;whiteSpace=wrap;html=1;fillStyle=hatch;comic=0;shadow=0;glass=0;" parent="1" vertex="1">
          <mxGeometry x="232" y="4625" width="20" height="30" as="geometry" />
        </mxCell>
        <mxCell id="rwRMCPvIfiqm_xGu82nB-378" value="" style="rounded=0;whiteSpace=wrap;html=1;fillStyle=hatch;comic=0;shadow=0;glass=0;" parent="1" vertex="1">
          <mxGeometry x="212" y="4625" width="20" height="30" as="geometry" />
        </mxCell>
        <mxCell id="rwRMCPvIfiqm_xGu82nB-379" value="" style="rounded=0;whiteSpace=wrap;html=1;fillStyle=hatch;comic=0;shadow=0;glass=0;" parent="1" vertex="1">
          <mxGeometry x="192" y="4625" width="20" height="30" as="geometry" />
        </mxCell>
        <mxCell id="rwRMCPvIfiqm_xGu82nB-380" value="" style="rounded=0;whiteSpace=wrap;html=1;fillStyle=hatch;comic=0;shadow=0;glass=0;" parent="1" vertex="1">
          <mxGeometry x="332" y="4625" width="20" height="30" as="geometry" />
        </mxCell>
        <mxCell id="rwRMCPvIfiqm_xGu82nB-381" value="" style="rounded=0;whiteSpace=wrap;html=1;fillStyle=hatch;comic=0;shadow=0;glass=0;" parent="1" vertex="1">
          <mxGeometry x="312" y="4625" width="20" height="30" as="geometry" />
        </mxCell>
        <mxCell id="rwRMCPvIfiqm_xGu82nB-382" value="" style="rounded=0;whiteSpace=wrap;html=1;fillStyle=hatch;comic=0;shadow=0;glass=0;" parent="1" vertex="1">
          <mxGeometry x="292" y="4625" width="20" height="30" as="geometry" />
        </mxCell>
        <mxCell id="rwRMCPvIfiqm_xGu82nB-383" value="" style="rounded=0;whiteSpace=wrap;html=1;fillStyle=hatch;comic=0;shadow=0;glass=0;" parent="1" vertex="1">
          <mxGeometry x="272" y="4625" width="20" height="30" as="geometry" />
        </mxCell>
        <mxCell id="rwRMCPvIfiqm_xGu82nB-384" value="" style="rounded=0;whiteSpace=wrap;html=1;fillStyle=hatch;comic=0;shadow=0;glass=0;" parent="1" vertex="1">
          <mxGeometry x="412" y="4625" width="20" height="30" as="geometry" />
        </mxCell>
        <mxCell id="rwRMCPvIfiqm_xGu82nB-385" value="" style="rounded=0;whiteSpace=wrap;html=1;fillStyle=hatch;comic=0;shadow=0;glass=0;" parent="1" vertex="1">
          <mxGeometry x="392" y="4625" width="20" height="30" as="geometry" />
        </mxCell>
        <mxCell id="rwRMCPvIfiqm_xGu82nB-386" value="" style="rounded=0;whiteSpace=wrap;html=1;fillStyle=hatch;comic=0;shadow=0;glass=0;" parent="1" vertex="1">
          <mxGeometry x="372" y="4625" width="20" height="30" as="geometry" />
        </mxCell>
        <mxCell id="rwRMCPvIfiqm_xGu82nB-387" value="" style="rounded=0;whiteSpace=wrap;html=1;fillStyle=hatch;comic=0;shadow=0;glass=0;" parent="1" vertex="1">
          <mxGeometry x="352" y="4625" width="20" height="30" as="geometry" />
        </mxCell>
        <mxCell id="rwRMCPvIfiqm_xGu82nB-388" value="" style="rounded=0;whiteSpace=wrap;html=1;fillStyle=hatch;comic=0;shadow=0;glass=0;" parent="1" vertex="1">
          <mxGeometry x="492" y="4625" width="20" height="30" as="geometry" />
        </mxCell>
        <mxCell id="rwRMCPvIfiqm_xGu82nB-389" value="" style="rounded=0;whiteSpace=wrap;html=1;fillStyle=hatch;comic=0;shadow=0;glass=0;" parent="1" vertex="1">
          <mxGeometry x="472" y="4625" width="20" height="30" as="geometry" />
        </mxCell>
        <mxCell id="rwRMCPvIfiqm_xGu82nB-390" value="" style="rounded=0;whiteSpace=wrap;html=1;fillStyle=hatch;comic=0;shadow=0;glass=0;" parent="1" vertex="1">
          <mxGeometry x="452" y="4625" width="20" height="30" as="geometry" />
        </mxCell>
        <mxCell id="rwRMCPvIfiqm_xGu82nB-391" value="" style="rounded=0;whiteSpace=wrap;html=1;fillStyle=hatch;comic=0;shadow=0;glass=0;" parent="1" vertex="1">
          <mxGeometry x="432" y="4625" width="20" height="30" as="geometry" />
        </mxCell>
        <mxCell id="rwRMCPvIfiqm_xGu82nB-392" value="" style="rounded=0;whiteSpace=wrap;html=1;fillStyle=hatch;comic=0;shadow=0;glass=0;" parent="1" vertex="1">
          <mxGeometry x="572" y="4625" width="20" height="30" as="geometry" />
        </mxCell>
        <mxCell id="rwRMCPvIfiqm_xGu82nB-393" value="" style="rounded=0;whiteSpace=wrap;html=1;fillStyle=hatch;comic=0;shadow=0;glass=0;" parent="1" vertex="1">
          <mxGeometry x="552" y="4625" width="20" height="30" as="geometry" />
        </mxCell>
        <mxCell id="rwRMCPvIfiqm_xGu82nB-394" value="" style="rounded=0;whiteSpace=wrap;html=1;fillStyle=hatch;comic=0;shadow=0;glass=0;" parent="1" vertex="1">
          <mxGeometry x="532" y="4625" width="20" height="30" as="geometry" />
        </mxCell>
        <mxCell id="rwRMCPvIfiqm_xGu82nB-395" value="" style="rounded=0;whiteSpace=wrap;html=1;fillStyle=hatch;comic=0;shadow=0;glass=0;" parent="1" vertex="1">
          <mxGeometry x="512" y="4625" width="20" height="30" as="geometry" />
        </mxCell>
        <mxCell id="rwRMCPvIfiqm_xGu82nB-396" value="" style="rounded=0;whiteSpace=wrap;html=1;fillStyle=hatch;comic=0;shadow=0;glass=0;" parent="1" vertex="1">
          <mxGeometry x="612" y="4625" width="20" height="30" as="geometry" />
        </mxCell>
        <mxCell id="rwRMCPvIfiqm_xGu82nB-397" value="" style="rounded=0;whiteSpace=wrap;html=1;fillStyle=hatch;comic=0;shadow=0;glass=0;" parent="1" vertex="1">
          <mxGeometry x="592" y="4625" width="20" height="30" as="geometry" />
        </mxCell>
        <mxCell id="rwRMCPvIfiqm_xGu82nB-398" value="" style="endArrow=oval;startArrow=oval;html=1;rounded=0;startFill=0;endFill=0;" parent="1" edge="1">
          <mxGeometry width="50" height="50" relative="1" as="geometry">
            <mxPoint x="112" y="4775" as="sourcePoint" />
            <mxPoint x="632" y="4775" as="targetPoint" />
          </mxGeometry>
        </mxCell>
        <mxCell id="rwRMCPvIfiqm_xGu82nB-399" value="&lt;font style=&quot;font-size: 20px;&quot;&gt;L=4.0m&lt;/font&gt;" style="text;html=1;align=center;verticalAlign=middle;whiteSpace=wrap;rounded=0;" parent="1" vertex="1">
          <mxGeometry x="317" y="4745" width="110" height="30" as="geometry" />
        </mxCell>
        <mxCell id="rwRMCPvIfiqm_xGu82nB-400" value="" style="triangle;whiteSpace=wrap;html=1;rotation=270;" parent="1" vertex="1">
          <mxGeometry x="617" y="4695" width="30" height="30" as="geometry" />
        </mxCell>
        <mxCell id="rwRMCPvIfiqm_xGu82nB-401" value="&lt;font style=&quot;font-size: 20px;&quot;&gt;w=42.6kN/m&lt;/font&gt;" style="text;html=1;align=center;verticalAlign=middle;whiteSpace=wrap;rounded=0;" parent="1" vertex="1">
          <mxGeometry x="306" y="4595" width="120" height="30" as="geometry" />
        </mxCell>
        <mxCell id="rwRMCPvIfiqm_xGu82nB-402" value="" style="rounded=0;whiteSpace=wrap;html=1;strokeColor=none;" parent="1" vertex="1">
          <mxGeometry x="-234" y="4950" width="1200" height="210" as="geometry" />
        </mxCell>
        <mxCell id="rwRMCPvIfiqm_xGu82nB-403" value="" style="rounded=0;whiteSpace=wrap;html=1;fillColor=#E6E6E6;" parent="1" vertex="1">
          <mxGeometry x="112" y="5045" width="520" height="20" as="geometry" />
        </mxCell>
        <mxCell id="rwRMCPvIfiqm_xGu82nB-404" value="" style="triangle;whiteSpace=wrap;html=1;rotation=270;" parent="1" vertex="1">
          <mxGeometry x="97" y="5065" width="30" height="30" as="geometry" />
        </mxCell>
        <mxCell id="rwRMCPvIfiqm_xGu82nB-405" value="" style="rounded=0;whiteSpace=wrap;html=1;fillStyle=hatch;comic=0;shadow=0;glass=0;" parent="1" vertex="1">
          <mxGeometry x="112" y="4995" width="20" height="30" as="geometry" />
        </mxCell>
        <mxCell id="rwRMCPvIfiqm_xGu82nB-406" value="" style="rounded=0;whiteSpace=wrap;html=1;fillStyle=hatch;comic=0;shadow=0;glass=0;" parent="1" vertex="1">
          <mxGeometry x="132" y="4995" width="20" height="30" as="geometry" />
        </mxCell>
        <mxCell id="rwRMCPvIfiqm_xGu82nB-407" value="" style="rounded=0;whiteSpace=wrap;html=1;fillStyle=hatch;comic=0;shadow=0;glass=0;" parent="1" vertex="1">
          <mxGeometry x="172" y="4995" width="20" height="30" as="geometry" />
        </mxCell>
        <mxCell id="rwRMCPvIfiqm_xGu82nB-408" value="" style="rounded=0;whiteSpace=wrap;html=1;fillStyle=hatch;comic=0;shadow=0;glass=0;" parent="1" vertex="1">
          <mxGeometry x="152" y="4995" width="20" height="30" as="geometry" />
        </mxCell>
        <mxCell id="rwRMCPvIfiqm_xGu82nB-409" value="" style="rounded=0;whiteSpace=wrap;html=1;fillStyle=hatch;comic=0;shadow=0;glass=0;" parent="1" vertex="1">
          <mxGeometry x="252" y="4995" width="20" height="30" as="geometry" />
        </mxCell>
        <mxCell id="rwRMCPvIfiqm_xGu82nB-410" value="" style="rounded=0;whiteSpace=wrap;html=1;fillStyle=hatch;comic=0;shadow=0;glass=0;" parent="1" vertex="1">
          <mxGeometry x="232" y="4995" width="20" height="30" as="geometry" />
        </mxCell>
        <mxCell id="rwRMCPvIfiqm_xGu82nB-411" value="" style="rounded=0;whiteSpace=wrap;html=1;fillStyle=hatch;comic=0;shadow=0;glass=0;" parent="1" vertex="1">
          <mxGeometry x="212" y="4995" width="20" height="30" as="geometry" />
        </mxCell>
        <mxCell id="rwRMCPvIfiqm_xGu82nB-412" value="" style="rounded=0;whiteSpace=wrap;html=1;fillStyle=hatch;comic=0;shadow=0;glass=0;" parent="1" vertex="1">
          <mxGeometry x="192" y="4995" width="20" height="30" as="geometry" />
        </mxCell>
        <mxCell id="rwRMCPvIfiqm_xGu82nB-413" value="" style="rounded=0;whiteSpace=wrap;html=1;fillStyle=hatch;comic=0;shadow=0;glass=0;" parent="1" vertex="1">
          <mxGeometry x="332" y="4995" width="20" height="30" as="geometry" />
        </mxCell>
        <mxCell id="rwRMCPvIfiqm_xGu82nB-414" value="" style="rounded=0;whiteSpace=wrap;html=1;fillStyle=hatch;comic=0;shadow=0;glass=0;" parent="1" vertex="1">
          <mxGeometry x="312" y="4995" width="20" height="30" as="geometry" />
        </mxCell>
        <mxCell id="rwRMCPvIfiqm_xGu82nB-415" value="" style="rounded=0;whiteSpace=wrap;html=1;fillStyle=hatch;comic=0;shadow=0;glass=0;" parent="1" vertex="1">
          <mxGeometry x="292" y="4995" width="20" height="30" as="geometry" />
        </mxCell>
        <mxCell id="rwRMCPvIfiqm_xGu82nB-416" value="" style="rounded=0;whiteSpace=wrap;html=1;fillStyle=hatch;comic=0;shadow=0;glass=0;" parent="1" vertex="1">
          <mxGeometry x="272" y="4995" width="20" height="30" as="geometry" />
        </mxCell>
        <mxCell id="rwRMCPvIfiqm_xGu82nB-417" value="" style="rounded=0;whiteSpace=wrap;html=1;fillStyle=hatch;comic=0;shadow=0;glass=0;" parent="1" vertex="1">
          <mxGeometry x="412" y="4995" width="20" height="30" as="geometry" />
        </mxCell>
        <mxCell id="rwRMCPvIfiqm_xGu82nB-418" value="" style="rounded=0;whiteSpace=wrap;html=1;fillStyle=hatch;comic=0;shadow=0;glass=0;" parent="1" vertex="1">
          <mxGeometry x="392" y="4995" width="20" height="30" as="geometry" />
        </mxCell>
        <mxCell id="rwRMCPvIfiqm_xGu82nB-419" value="" style="rounded=0;whiteSpace=wrap;html=1;fillStyle=hatch;comic=0;shadow=0;glass=0;" parent="1" vertex="1">
          <mxGeometry x="372" y="4995" width="20" height="30" as="geometry" />
        </mxCell>
        <mxCell id="rwRMCPvIfiqm_xGu82nB-420" value="" style="rounded=0;whiteSpace=wrap;html=1;fillStyle=hatch;comic=0;shadow=0;glass=0;" parent="1" vertex="1">
          <mxGeometry x="352" y="4995" width="20" height="30" as="geometry" />
        </mxCell>
        <mxCell id="rwRMCPvIfiqm_xGu82nB-421" value="" style="rounded=0;whiteSpace=wrap;html=1;fillStyle=hatch;comic=0;shadow=0;glass=0;" parent="1" vertex="1">
          <mxGeometry x="492" y="4995" width="20" height="30" as="geometry" />
        </mxCell>
        <mxCell id="rwRMCPvIfiqm_xGu82nB-422" value="" style="rounded=0;whiteSpace=wrap;html=1;fillStyle=hatch;comic=0;shadow=0;glass=0;" parent="1" vertex="1">
          <mxGeometry x="472" y="4995" width="20" height="30" as="geometry" />
        </mxCell>
        <mxCell id="rwRMCPvIfiqm_xGu82nB-423" value="" style="rounded=0;whiteSpace=wrap;html=1;fillStyle=hatch;comic=0;shadow=0;glass=0;" parent="1" vertex="1">
          <mxGeometry x="452" y="4995" width="20" height="30" as="geometry" />
        </mxCell>
        <mxCell id="rwRMCPvIfiqm_xGu82nB-424" value="" style="rounded=0;whiteSpace=wrap;html=1;fillStyle=hatch;comic=0;shadow=0;glass=0;" parent="1" vertex="1">
          <mxGeometry x="432" y="4995" width="20" height="30" as="geometry" />
        </mxCell>
        <mxCell id="rwRMCPvIfiqm_xGu82nB-425" value="" style="rounded=0;whiteSpace=wrap;html=1;fillStyle=hatch;comic=0;shadow=0;glass=0;" parent="1" vertex="1">
          <mxGeometry x="572" y="4995" width="20" height="30" as="geometry" />
        </mxCell>
        <mxCell id="rwRMCPvIfiqm_xGu82nB-426" value="" style="rounded=0;whiteSpace=wrap;html=1;fillStyle=hatch;comic=0;shadow=0;glass=0;" parent="1" vertex="1">
          <mxGeometry x="552" y="4995" width="20" height="30" as="geometry" />
        </mxCell>
        <mxCell id="rwRMCPvIfiqm_xGu82nB-427" value="" style="rounded=0;whiteSpace=wrap;html=1;fillStyle=hatch;comic=0;shadow=0;glass=0;" parent="1" vertex="1">
          <mxGeometry x="532" y="4995" width="20" height="30" as="geometry" />
        </mxCell>
        <mxCell id="rwRMCPvIfiqm_xGu82nB-428" value="" style="rounded=0;whiteSpace=wrap;html=1;fillStyle=hatch;comic=0;shadow=0;glass=0;" parent="1" vertex="1">
          <mxGeometry x="512" y="4995" width="20" height="30" as="geometry" />
        </mxCell>
        <mxCell id="rwRMCPvIfiqm_xGu82nB-429" value="" style="rounded=0;whiteSpace=wrap;html=1;fillStyle=hatch;comic=0;shadow=0;glass=0;" parent="1" vertex="1">
          <mxGeometry x="612" y="4995" width="20" height="30" as="geometry" />
        </mxCell>
        <mxCell id="rwRMCPvIfiqm_xGu82nB-430" value="" style="rounded=0;whiteSpace=wrap;html=1;fillStyle=hatch;comic=0;shadow=0;glass=0;" parent="1" vertex="1">
          <mxGeometry x="592" y="4995" width="20" height="30" as="geometry" />
        </mxCell>
        <mxCell id="rwRMCPvIfiqm_xGu82nB-431" value="" style="endArrow=oval;startArrow=oval;html=1;rounded=0;startFill=0;endFill=0;" parent="1" edge="1">
          <mxGeometry width="50" height="50" relative="1" as="geometry">
            <mxPoint x="112" y="5145" as="sourcePoint" />
            <mxPoint x="632" y="5145" as="targetPoint" />
          </mxGeometry>
        </mxCell>
        <mxCell id="rwRMCPvIfiqm_xGu82nB-432" value="&lt;font style=&quot;font-size: 20px;&quot;&gt;L=2.6m&lt;/font&gt;" style="text;html=1;align=center;verticalAlign=middle;whiteSpace=wrap;rounded=0;" parent="1" vertex="1">
          <mxGeometry x="317" y="5115" width="110" height="30" as="geometry" />
        </mxCell>
        <mxCell id="rwRMCPvIfiqm_xGu82nB-433" value="" style="triangle;whiteSpace=wrap;html=1;rotation=270;" parent="1" vertex="1">
          <mxGeometry x="617" y="5065" width="30" height="30" as="geometry" />
        </mxCell>
        <mxCell id="rwRMCPvIfiqm_xGu82nB-434" value="&lt;font style=&quot;font-size: 20px;&quot;&gt;w=63.2kN/m&lt;/font&gt;" style="text;html=1;align=center;verticalAlign=middle;whiteSpace=wrap;rounded=0;" parent="1" vertex="1">
          <mxGeometry x="306" y="4965" width="120" height="30" as="geometry" />
        </mxCell>
        <mxCell id="rwRMCPvIfiqm_xGu82nB-435" value="" style="rounded=0;whiteSpace=wrap;html=1;strokeColor=none;" parent="1" vertex="1">
          <mxGeometry x="-248" y="5370" width="1200" height="210" as="geometry" />
        </mxCell>
        <mxCell id="rwRMCPvIfiqm_xGu82nB-436" value="" style="rounded=0;whiteSpace=wrap;html=1;fillColor=#E6E6E6;" parent="1" vertex="1">
          <mxGeometry x="98" y="5465" width="520" height="20" as="geometry" />
        </mxCell>
        <mxCell id="rwRMCPvIfiqm_xGu82nB-437" value="" style="triangle;whiteSpace=wrap;html=1;rotation=270;" parent="1" vertex="1">
          <mxGeometry x="83" y="5485" width="30" height="30" as="geometry" />
        </mxCell>
        <mxCell id="rwRMCPvIfiqm_xGu82nB-438" value="" style="rounded=0;whiteSpace=wrap;html=1;fillStyle=hatch;comic=0;shadow=0;glass=0;" parent="1" vertex="1">
          <mxGeometry x="98" y="5415" width="20" height="30" as="geometry" />
        </mxCell>
        <mxCell id="rwRMCPvIfiqm_xGu82nB-439" value="" style="rounded=0;whiteSpace=wrap;html=1;fillStyle=hatch;comic=0;shadow=0;glass=0;" parent="1" vertex="1">
          <mxGeometry x="118" y="5415" width="20" height="30" as="geometry" />
        </mxCell>
        <mxCell id="rwRMCPvIfiqm_xGu82nB-440" value="" style="rounded=0;whiteSpace=wrap;html=1;fillStyle=hatch;comic=0;shadow=0;glass=0;" parent="1" vertex="1">
          <mxGeometry x="158" y="5415" width="20" height="30" as="geometry" />
        </mxCell>
        <mxCell id="rwRMCPvIfiqm_xGu82nB-441" value="" style="rounded=0;whiteSpace=wrap;html=1;fillStyle=hatch;comic=0;shadow=0;glass=0;" parent="1" vertex="1">
          <mxGeometry x="138" y="5415" width="20" height="30" as="geometry" />
        </mxCell>
        <mxCell id="rwRMCPvIfiqm_xGu82nB-442" value="" style="rounded=0;whiteSpace=wrap;html=1;fillStyle=hatch;comic=0;shadow=0;glass=0;" parent="1" vertex="1">
          <mxGeometry x="238" y="5415" width="20" height="30" as="geometry" />
        </mxCell>
        <mxCell id="rwRMCPvIfiqm_xGu82nB-443" value="" style="rounded=0;whiteSpace=wrap;html=1;fillStyle=hatch;comic=0;shadow=0;glass=0;" parent="1" vertex="1">
          <mxGeometry x="218" y="5415" width="20" height="30" as="geometry" />
        </mxCell>
        <mxCell id="rwRMCPvIfiqm_xGu82nB-444" value="" style="rounded=0;whiteSpace=wrap;html=1;fillStyle=hatch;comic=0;shadow=0;glass=0;" parent="1" vertex="1">
          <mxGeometry x="198" y="5415" width="20" height="30" as="geometry" />
        </mxCell>
        <mxCell id="rwRMCPvIfiqm_xGu82nB-445" value="" style="rounded=0;whiteSpace=wrap;html=1;fillStyle=hatch;comic=0;shadow=0;glass=0;" parent="1" vertex="1">
          <mxGeometry x="178" y="5415" width="20" height="30" as="geometry" />
        </mxCell>
        <mxCell id="rwRMCPvIfiqm_xGu82nB-446" value="" style="rounded=0;whiteSpace=wrap;html=1;fillStyle=hatch;comic=0;shadow=0;glass=0;" parent="1" vertex="1">
          <mxGeometry x="318" y="5415" width="20" height="30" as="geometry" />
        </mxCell>
        <mxCell id="rwRMCPvIfiqm_xGu82nB-447" value="" style="rounded=0;whiteSpace=wrap;html=1;fillStyle=hatch;comic=0;shadow=0;glass=0;" parent="1" vertex="1">
          <mxGeometry x="298" y="5415" width="20" height="30" as="geometry" />
        </mxCell>
        <mxCell id="rwRMCPvIfiqm_xGu82nB-448" value="" style="rounded=0;whiteSpace=wrap;html=1;fillStyle=hatch;comic=0;shadow=0;glass=0;" parent="1" vertex="1">
          <mxGeometry x="278" y="5415" width="20" height="30" as="geometry" />
        </mxCell>
        <mxCell id="rwRMCPvIfiqm_xGu82nB-449" value="" style="rounded=0;whiteSpace=wrap;html=1;fillStyle=hatch;comic=0;shadow=0;glass=0;" parent="1" vertex="1">
          <mxGeometry x="258" y="5415" width="20" height="30" as="geometry" />
        </mxCell>
        <mxCell id="rwRMCPvIfiqm_xGu82nB-450" value="" style="rounded=0;whiteSpace=wrap;html=1;fillStyle=hatch;comic=0;shadow=0;glass=0;" parent="1" vertex="1">
          <mxGeometry x="398" y="5415" width="20" height="30" as="geometry" />
        </mxCell>
        <mxCell id="rwRMCPvIfiqm_xGu82nB-451" value="" style="rounded=0;whiteSpace=wrap;html=1;fillStyle=hatch;comic=0;shadow=0;glass=0;" parent="1" vertex="1">
          <mxGeometry x="378" y="5415" width="20" height="30" as="geometry" />
        </mxCell>
        <mxCell id="rwRMCPvIfiqm_xGu82nB-452" value="" style="rounded=0;whiteSpace=wrap;html=1;fillStyle=hatch;comic=0;shadow=0;glass=0;" parent="1" vertex="1">
          <mxGeometry x="358" y="5415" width="20" height="30" as="geometry" />
        </mxCell>
        <mxCell id="rwRMCPvIfiqm_xGu82nB-453" value="" style="rounded=0;whiteSpace=wrap;html=1;fillStyle=hatch;comic=0;shadow=0;glass=0;" parent="1" vertex="1">
          <mxGeometry x="338" y="5415" width="20" height="30" as="geometry" />
        </mxCell>
        <mxCell id="rwRMCPvIfiqm_xGu82nB-454" value="" style="rounded=0;whiteSpace=wrap;html=1;fillStyle=hatch;comic=0;shadow=0;glass=0;" parent="1" vertex="1">
          <mxGeometry x="478" y="5415" width="20" height="30" as="geometry" />
        </mxCell>
        <mxCell id="rwRMCPvIfiqm_xGu82nB-455" value="" style="rounded=0;whiteSpace=wrap;html=1;fillStyle=hatch;comic=0;shadow=0;glass=0;" parent="1" vertex="1">
          <mxGeometry x="458" y="5415" width="20" height="30" as="geometry" />
        </mxCell>
        <mxCell id="rwRMCPvIfiqm_xGu82nB-456" value="" style="rounded=0;whiteSpace=wrap;html=1;fillStyle=hatch;comic=0;shadow=0;glass=0;" parent="1" vertex="1">
          <mxGeometry x="438" y="5415" width="20" height="30" as="geometry" />
        </mxCell>
        <mxCell id="rwRMCPvIfiqm_xGu82nB-457" value="" style="rounded=0;whiteSpace=wrap;html=1;fillStyle=hatch;comic=0;shadow=0;glass=0;" parent="1" vertex="1">
          <mxGeometry x="418" y="5415" width="20" height="30" as="geometry" />
        </mxCell>
        <mxCell id="rwRMCPvIfiqm_xGu82nB-458" value="" style="rounded=0;whiteSpace=wrap;html=1;fillStyle=hatch;comic=0;shadow=0;glass=0;" parent="1" vertex="1">
          <mxGeometry x="558" y="5415" width="20" height="30" as="geometry" />
        </mxCell>
        <mxCell id="rwRMCPvIfiqm_xGu82nB-459" value="" style="rounded=0;whiteSpace=wrap;html=1;fillStyle=hatch;comic=0;shadow=0;glass=0;" parent="1" vertex="1">
          <mxGeometry x="538" y="5415" width="20" height="30" as="geometry" />
        </mxCell>
        <mxCell id="rwRMCPvIfiqm_xGu82nB-460" value="" style="rounded=0;whiteSpace=wrap;html=1;fillStyle=hatch;comic=0;shadow=0;glass=0;" parent="1" vertex="1">
          <mxGeometry x="518" y="5415" width="20" height="30" as="geometry" />
        </mxCell>
        <mxCell id="rwRMCPvIfiqm_xGu82nB-461" value="" style="rounded=0;whiteSpace=wrap;html=1;fillStyle=hatch;comic=0;shadow=0;glass=0;" parent="1" vertex="1">
          <mxGeometry x="498" y="5415" width="20" height="30" as="geometry" />
        </mxCell>
        <mxCell id="rwRMCPvIfiqm_xGu82nB-462" value="" style="rounded=0;whiteSpace=wrap;html=1;fillStyle=hatch;comic=0;shadow=0;glass=0;" parent="1" vertex="1">
          <mxGeometry x="598" y="5415" width="20" height="30" as="geometry" />
        </mxCell>
        <mxCell id="rwRMCPvIfiqm_xGu82nB-463" value="" style="rounded=0;whiteSpace=wrap;html=1;fillStyle=hatch;comic=0;shadow=0;glass=0;" parent="1" vertex="1">
          <mxGeometry x="578" y="5415" width="20" height="30" as="geometry" />
        </mxCell>
        <mxCell id="rwRMCPvIfiqm_xGu82nB-464" value="" style="endArrow=oval;startArrow=oval;html=1;rounded=0;startFill=0;endFill=0;" parent="1" edge="1">
          <mxGeometry width="50" height="50" relative="1" as="geometry">
            <mxPoint x="98" y="5565" as="sourcePoint" />
            <mxPoint x="618" y="5565" as="targetPoint" />
          </mxGeometry>
        </mxCell>
        <mxCell id="rwRMCPvIfiqm_xGu82nB-465" value="&lt;font style=&quot;font-size: 20px;&quot;&gt;L=2.93m&lt;/font&gt;" style="text;html=1;align=center;verticalAlign=middle;whiteSpace=wrap;rounded=0;" parent="1" vertex="1">
          <mxGeometry x="303" y="5535" width="110" height="30" as="geometry" />
        </mxCell>
        <mxCell id="rwRMCPvIfiqm_xGu82nB-466" value="" style="triangle;whiteSpace=wrap;html=1;rotation=270;" parent="1" vertex="1">
          <mxGeometry x="603" y="5485" width="30" height="30" as="geometry" />
        </mxCell>
        <mxCell id="rwRMCPvIfiqm_xGu82nB-467" value="&lt;font style=&quot;font-size: 20px;&quot;&gt;w=59.1kN/m&lt;/font&gt;" style="text;html=1;align=center;verticalAlign=middle;whiteSpace=wrap;rounded=0;" parent="1" vertex="1">
          <mxGeometry x="292" y="5385" width="120" height="30" as="geometry" />
        </mxCell>
      </root>
    </mxGraphModel>
  </diagram>
</mxfile>
